<?xml version="1.0" encoding="UTF-8"?>
<svg id="Layer_2" data-name="Layer 2" xmlns="http://www.w3.org/2000/svg" viewBox="0 0 516.55 133.07">
  <defs>
    <style>
      .cls-1 {
        fill: #231f20;
      }
    </style>
  </defs>
  <g id="doodle">
    <g>
      <path class="cls-1" d="M135.17,73.91c3.8,9.7,11.49,17.32,20.57,22.22,10.7,5.78,23.03,7.73,35.05,8.06,5.61.16,11.72.22,16.75-2.66,4.45-2.56,7.18-7.07,9.44-11.52s4.51-9.25,7.46-13.53,6.6-8.45,10.52-12.09c17.42-16.17,40.91-23.4,64.14-25.73s49.14-.34,70.89,10.63c9.42,4.75,18.09,11.09,25.19,18.93,3.56,3.93,6.73,8.25,9.34,12.87s5.29,10.57,5,16c-.31,5.73-3.73,10.36-8.03,13.87s-9.39,6.68-14.44,9.34-10.65,5-16.26,6.77c-5.27,1.66-11.23,3.52-16.81,3.49-2.52-.01-4.98-.76-6.55-2.84-1.43-1.91-1.89-4.38-2.22-6.69-.91-6.47-1.45-13.08-.12-19.53,2.15-10.37,9.27-17.83,18.7-22.21,9.91-4.6,21.18-6.14,31.98-6.83,12.74-.81,25.58.08,38.09,2.66,12.62,2.6,24.49,7.46,36.74,11.33,5.91,1.87,12.53,4.23,18.81,3.55,5.14-.56,9.95-3.31,13.81-6.64,6.63-5.7,10.84-13.87,12.39-22.42,1.32-7.31,1.06-15.41-1.29-22.48-1.33-3.99-3.35-7.69-6-10.96.4.49-.42,1.99,0,2.5,5.66,6.97,8.69,16.39,7.74,25.36s-4.58,17.27-10.76,23.55c-3.45,3.51-7.78,6.48-12.53,7.89-6.24,1.85-12.75-.07-18.79-1.83-12.55-3.67-24.59-8.87-37.37-11.77s-25.51-3.99-38.38-3.39c-11.17.52-22.85,1.95-33.2,6.41-9.64,4.16-17.28,11.4-19.74,21.86-1.04,4.41-1.14,8.94-1.07,13.44.07,5.02.27,10.56,1.67,15.41.7,2.42,2.06,4.57,4.49,5.51s5.36.59,7.96.14c5.79-1,11.49-2.55,17-4.59s11.04-4.66,16.18-7.72c4.86-2.89,10.08-6.13,13.78-10.48,6.32-7.45,4.97-18.81,1.28-27.13-4.34-9.81-11.77-18.38-20-25.13-18.31-15.03-41.88-21.46-65.25-22.19-24.5-.76-50.71,3.18-72.04,15.87-9.3,5.53-17.66,12.78-24.01,21.57-3.17,4.39-5.52,9.14-7.93,13.97-2.22,4.46-4.8,9.06-9.08,11.83-4.94,3.2-11.12,3.25-16.8,3.12-6.23-.14-12.47-.7-18.58-1.98-11.07-2.33-21.73-7.22-29.57-15.54-3.5-3.72-6.29-8.02-8.15-12.78.28.72-.29,1.77,0,2.5h0Z"/>
      <path class="cls-1" d="M508.36,27.53c-2.38-8.33-8.74-15.16-16.79-18.31-8.67-3.4-18.63-2.63-26.78,1.82s-13.73,12.04-15.41,20.97c-1.53,8.13-.33,17.08,5.53,23.25,6.39,6.75,16.7,9.69,25.82,8.98,2.31-.18,4.6-.75,6.58-1.98s3.4-2.85,4.72-4.61c2.58-3.44,4.56-7.41,5.53-11.61.79-3.38.94-7.15.47-10.6-.6-4.38-2.81-8.26-6.06-11.22s-7.54-5.3-12.03-5.61-8.23,1.59-10.77,5.06c-2.3,3.13-3.09,6.79-3.09,10.6s.6,7.75,3.75,10.25c2.95,2.33,7.56,2.65,10.21-.31,2.29-2.56,2.16-6.26,2.1-9.48-.03-1.7-.22-3.38-.49-5.05.13.81-.13,1.68,0,2.5s.24,1.6.33,2.41c.02.22.24,1.67.13,1.72-.07.03.1-1.07,0-.48-.07.37-.05.77-.1,1.15-.2,1.55-.69,3.11-1.66,4.36-2.17,2.8-6.01,3.13-9.05,1.61-1.62-.81-2.9-2.13-3.77-3.72-.42-.77-.74-1.59-.97-2.44-.12-.43-.21-.86-.28-1.3-.03-.19-.06-.38-.08-.57-.03-.25-.05-.49-.07-.74-.03-.51-.03-.48-.02.08v.44c.02-.3.05-.61.09-.91.02-.19.05-.38.08-.57.07-.49.17-.97.29-1.45.22-.89.52-1.76.88-2.6.7-1.62,1.66-3.13,2.88-4.4,5.96-6.24,15.2-3.55,21.03,1.41,3,2.54,5.29,5.85,6.27,9.68.24.93.4,1.88.49,2.83.03.3.03.61.06.91.08.81.08-1.3,0-.48-.06.63-.08,1.26-.16,1.89-.24,1.9-.71,3.76-1.35,5.56-1.31,3.68-3.33,7.19-5.9,10.14-2.83,3.23-6.39,4.85-10.66,5.06-8.27.41-17.38-1.97-23.65-7.54-2.94-2.61-5.25-5.92-6.45-9.67-.33-1.02-.57-2.07-.75-3.13-.09-.53-.16-1.06-.21-1.6-.04-.37-.06-.73-.09-1.1-.1-1.42-.04.33,0-.41.11-2.11.44-4.19,1-6.23,2.15-7.81,7.46-14.41,14.5-18.37s16.03-5.23,24.08-3.02c7.57,2.08,14.13,7.2,17.79,14.17.86,1.64,1.54,3.37,2.05,5.16-.22-.77.22-1.72,0-2.5h0Z"/>
      <path class="cls-1" d="M58.19,3.3c-9.61-3.46-20.11-1.83-29.22,2.35-8.99,4.13-17.44,10.79-22.76,19.21S0,43.7.27,53.68c.25,8.95,2,18.03,6.02,26.08,4.3,8.61,11.23,15.28,20.25,18.77,10.05,3.89,21.49,4.59,32.12,3.34s21.04-4.68,30.25-10.15c4.35-2.59,8.46-5.71,11.65-9.67,3.02-3.74,5.02-8.19,6-12.88,1.79-8.6.77-18.14-2.62-26.2-3.93-9.36-10.91-17.15-18.63-23.59-3.99-3.33-8.22-6.58-12.72-9.19-2.24-1.3-4.65-2.38-7.22-2.85-2.94-.53-5.97-.24-8.86.45-9.29,2.23-17.36,8.37-22.78,16.14-5.97,8.54-8.66,18.99-8.86,29.32-.17,8.8.66,17.87,5.18,25.63,2.22,3.8,5.32,7.08,9.22,9.16,4.88,2.6,10.83,3.5,16.31,3.17s10.28-2.84,14.64-6.31c3.86-3.08,8.25-6.42,9.85-11.3,1.34-4.09,1.03-8.96.66-13.19-.43-4.86-1.55-9.77-3.98-14.05-2.28-4.01-5.69-7.21-10.05-8.82-4.06-1.5-8.79-1.55-12.57.75-4.19,2.54-7.19,7.67-8.64,12.24-.66,2.08-.82,4.15-.81,6.32s.2,4.17,1.12,6.12c2.14,4.57,7.99,6.67,12.8,6.41,2.29-.12,4.43-1.08,5.72-3.03,1.11-1.68,1.24-3.53,1.24-5.48s-.18-3.59-1.2-5.24c-1.14-1.85-2.93-3.18-4.95-3.94.26.1-.29,2.39,0,2.5,1.97.73,3.7,2.01,4.85,3.79.51.8.9,1.67,1.11,2.6.05.22.07.46.12.68.14.61.28-1.29-.05-.27-.16.49-.23,1-.42,1.49-1.84,4.72-7.07,4.89-11.31,3.77-2.29-.6-4.6-1.51-6.25-3.29-1.47-1.58-2.34-3.67-2.64-5.79-.05-.36-.11-.74-.11-1.1,0,1.11.03.27.08.07.15-.62.2-1.27.35-1.89.3-1.25.75-2.46,1.27-3.63.97-2.15,2.19-4.23,3.64-6.09,2.68-3.44,6.38-5.56,10.8-5.57,4.01-.02,8.01,1.54,11.1,4.06,3.45,2.81,5.72,6.87,7.07,11.06,1.44,4.47,2.37,9.77,1.65,14.45s-3.86,8.34-7.52,11.44-7.65,6.45-12.42,7.86-10.49,1.13-15.45-.06c-4.4-1.06-8.43-3.19-11.57-6.48-5.82-6.1-8.22-14.86-8.74-23.09-.63-10.05,1.96-20.76,7.17-29.37,4.51-7.47,11.32-13.69,19.46-16.98,4.62-1.87,9.88-3.02,14.82-1.8s8.94,4.27,12.87,7.13c7.54,5.49,14.63,11.85,19.89,19.62,2.58,3.81,4.7,7.93,6.1,12.33.67,2.12,1.19,4.3,1.52,6.5.18,1.15.31,2.3.38,3.46.02.26.03.52.04.78,0,.08,0,1.55.03.87.02-.52-.02.3-.03.41-.02.44-.05.87-.09,1.31-.37,4.4-1.55,8.75-3.65,12.64-2.22,4.12-5.46,7.56-9.14,10.41-7.69,5.95-17.09,9.93-26.5,12.2-9.67,2.33-19.79,2.82-29.63,1.31s-18.64-4.94-25.29-12.06c-5.68-6.08-9.13-13.94-10.98-21.97-2.18-9.53-2.61-20.03.38-29.43S11.75,19.35,19.25,13.87,35.7,4.5,45.01,3.95c4.48-.26,8.95.33,13.17,1.85-.25-.09.28-2.4,0-2.5h0Z"/>
      <path class="cls-1" d="M55.52,5.6c13.43-2.51,27.82-5.13,41.19-.93,6.03,1.9,11.55,5.21,16.02,9.68,4.61,4.6,7.81,10.28,10.01,16.37,4.28,11.85,5.05,24.64,9.53,36.43,2.01,5.29,4.72,10.42,8.58,14.59,4.24,4.57,9.72,7.51,15.81,8.77,3.29.68,6.66.93,10.02.89,3.54-.04,7.13-.32,10.53-1.33,5.78-1.72,10.34-5.82,13.43-10.92s4.7-10.97,5.09-16.87c.35-5.36.04-10.81-1.21-16.03-2.85-11.87-10.19-23.3-20.6-29.9-2.53-1.6-5.26-2.9-8.14-3.74-2.6-.76-6.27-1.77-8.78-.32-1.3.75-1.99,2.13-2.57,3.45-.74,1.7-1.37,3.46-1.88,5.24-.9,3.12-1.42,6.35-1.51,9.6-.15,5.79.4,11.5,3.09,16.73,2.61,5.07,6.88,9.4,12.19,11.6,1.3.54,2.72,1.04,4.12,1.17,1.7.16,3.09-.5,4.28-1.67,2.23-2.2,4.47-5.33,5.35-8.36.58-1.99.68-4.87.03-6.86-.75-2.3-2.72-3.83-4.63-5.16s-4.13-2.67-5.6-4.67c.39.53-.4,1.95,0,2.5,2.71,3.66,8.14,4.93,10.02,9.25.14.32.25.64.34.97.04.16.04,1.21.14.54.11-.79-.17.51-.17.53-.1.4-.22.79-.37,1.17-.55,1.47-1.39,2.82-2.29,4.09-1.59,2.26-3.54,5.26-6.65,5.19-2.68-.06-5.55-1.47-7.77-2.87s-4.27-3.25-5.96-5.32c-3.72-4.58-5.85-10.42-6.06-16.31-.12-3.28.62-6.72,1.53-9.85.44-1.5.96-2.97,1.56-4.42s1.22-2.95,2.5-3.86c2.31-1.63,5.85-.75,8.35-.1,2.77.72,5.42,1.88,7.89,3.33,9.94,5.87,17.2,16.2,20.65,27.1,1.78,5.61,2.67,11.54,1.87,17.39-.76,5.51-2.64,10.93-5.82,15.52s-7.98,8.29-13.68,9.68c-6.14,1.49-13.1,1.37-19.27.09-5.78-1.2-11.05-3.9-15.19-8.12-3.76-3.83-6.47-8.57-8.51-13.5-4.54-10.96-5.55-22.89-8.92-34.19-1.74-5.83-4.15-11.53-7.86-16.4s-8.27-8.59-13.57-11.25c-11.58-5.81-24.98-5.08-37.42-3.15-3.24.5-6.46,1.09-9.68,1.7-.17.03.13,2.48,0,2.5h0Z"/>
    </g>
  </g>
</svg>