<?xml version="1.0" encoding="UTF-8"?>
<svg id="Layer_2" data-name="Layer 2" xmlns="http://www.w3.org/2000/svg" viewBox="0 0 303.48 77.21">
  <defs>
    <style>
      .cls-1 {
        fill: #231f20;
      }
    </style>
  </defs>
  <g id="Layer_1-2" data-name="Layer 1">
    <g>
      <path class="cls-1" d="M28.34,34.61l3.38.27,1.56.12c.55.04,1.61-.07,2.08.16.42.21.05.12.33.35.1.08.02.97.06-.1.04-.98-.07.13-.13.37-.17.74-.45,1.46-.82,2.12-1.44,2.58-4.18,4.48-7.1,4.92s-5.81-.81-7.73-3.05c-.96-1.11-1.67-2.42-2.14-3.81-.21-.62-.37-1.27-.48-1.92-.06-.34-.14-2.1-.14-.72,0,1.27.08-.36.14-.72,1.11-6.46,7.83-10.32,14.01-10.24,6.49.09,12.1,4.48,14.93,10.13.73,1.45,1.28,2.99,1.63,4.58.16.7.28,1.41.35,2.13.03.28.04.57.07.85.1,1.03-.02-.51.01-.61-.15.44-.08,1.1-.15,1.58-.45,3.26-1.78,6.36-3.69,9.03-3.84,5.35-10.03,9.05-16.6,9.69-12.61,1.22-25.49-8.45-27.38-21.06-.06-.41-.11-.82-.15-1.23s-.04-.8-.09-1.19c0,.08-.03.67,0,.15.06-1.08.16-2.16.33-3.23.29-1.77.76-3.51,1.37-5.2,1.26-3.47,3.13-6.71,5.46-9.57,4.78-5.85,11.44-9.91,18.48-12.46,7.46-2.7,16.19-4.54,24.07-2.87,7.15,1.51,13.08,6.16,17.84,11.52,10.02,11.3,15.44,26.56,28.67,34.86,6.8,4.27,14.62,6.59,22.37,8.45,8.51,2.04,17.16,3.44,25.87,4.29,17.48,1.7,35.1,1.18,52.56-.51,17.67-1.71,35.19-4.62,52.65-7.78,4.27-.77,8.53-1.56,12.79-2.35.17-.03-.13-2.48,0-2.5-18.5,3.44-37.03,6.83-55.72,9.08-18.6,2.24-37.4,3.35-56.12,2.08-9.21-.63-18.38-1.84-27.42-3.75-8.44-1.79-17.06-3.96-24.67-8.14s-12.73-10.12-17.41-16.94-8.4-13.49-13.7-19.43S55.95,1.32,48.07.26c-4.49-.6-9.05-.1-13.46.79-3.93.79-7.8,1.94-11.49,3.51-7.34,3.14-13.99,8.08-18.23,14.93C1.13,25.56-.25,32.49.33,39.55c1.12,13.65,14.92,24.47,28.46,22.6,6.97-.96,13.43-5.35,16.93-11.46,3.01-5.26,3.58-12.26,1.66-18.01-2.11-6.35-7.57-11.85-14.4-12.69s-14.18,2.93-15.58,9.8c-1.08,5.3.2,12.12,5.44,14.76,5.77,2.91,12.89-1.98,12.97-8.21,0-.64.33-3.16-.19-3.66-.21-.2-1.56-.12-1.82-.14l-1.82-.14-3.64-.29s-.08,2.49,0,2.5h0Z"/>
      <path class="cls-1" d="M260.96,28.64c.55,14.32,2.58,28.52,3.98,42.77.16,1.63.31,3.25.45,4.88l.04.46c-.04.58.04.61.23.1.25-.26.42-.76.6-1.07.41-.71.83-1.41,1.26-2.1,1.66-2.65,3.5-5.17,5.48-7.58,3.95-4.8,8.44-9.14,13.16-13.18,5.39-4.62,11.08-8.88,16.77-13.11.12-.09.03-2.49,0-2.5-13.98-4.29-27.96-8.58-41.94-12.87.22.07-.25,2.42,0,2.5,13.98,4.29,27.96,8.58,41.94,12.87v-2.5c-10,7.44-20.11,14.99-28.35,24.43-1.96,2.25-3.81,4.6-5.5,7.06-.85,1.23-1.65,2.49-2.41,3.78-.29.49-.66,1.63-1.11,1.96l-.1.18c-.03-.31-.05-.62-.08-.92-.05-.62-.11-1.24-.16-1.85-.65-7.09-1.49-14.16-2.26-21.23-.89-8.14-1.69-16.29-2-24.47.02.6-.04,1.65,0,2.41h0Z"/>
    </g>
  </g>
</svg>