<?xml version="1.0" encoding="UTF-8"?>
<svg id="Layer_2" data-name="Layer 2" xmlns="http://www.w3.org/2000/svg" viewBox="0 0 302.79 77.21">
  <defs>
    <style>
      .cls-1 {
        fill: #010101;
      }

      .cls-2 {
        fill: #231f20;
      }
    </style>
  </defs>
  <g id="Layer_1-2" data-name="Layer 1">
    <g>
      <path class="cls-2" d="M28.14,34.61l3.38.27,1.56.12c.55.04,1.61-.07,2.08.16.42.21.05.12.33.35.1.08.02.97.06-.1.04-.98-.07.13-.13.37-.17.74-.45,1.46-.82,2.12-1.44,2.58-4.18,4.48-7.1,4.92-2.92.44-5.81-.81-7.73-3.05-.96-1.11-1.67-2.42-2.14-3.81-.21-.62-.37-1.27-.48-1.92-.06-.34-.14-2.1-.14-.72,0,1.27.08-.36.14-.72,1.11-6.46,7.83-10.32,14.01-10.24,6.49.09,12.1,4.48,14.93,10.13.73,1.45,1.28,2.99,1.63,4.58.16.7.28,1.41.35,2.13.03.28.04.57.07.85.1,1.03-.02-.51.01-.61-.15.44-.08,1.1-.15,1.58-.45,3.26-1.78,6.36-3.69,9.03-3.84,5.35-10.03,9.05-16.6,9.69C15.1,60.96,2.22,51.29.33,38.68c-.06-.41-.11-.82-.15-1.23-.04-.41-.04-.8-.09-1.19,0,.08-.03.67,0,.15.06-1.08.16-2.16.33-3.23.29-1.77.76-3.51,1.37-5.2,1.26-3.47,3.13-6.71,5.46-9.57,4.78-5.85,11.44-9.91,18.48-12.46,7.46-2.7,16.19-4.54,24.07-2.87,7.15,1.51,13.08,6.16,17.84,11.52,10.02,11.3,15.44,26.56,28.67,34.86,6.8,4.27,14.62,6.59,22.37,8.45,8.51,2.04,17.16,3.44,25.87,4.29,17.48,1.7,35.1,1.18,52.56-.51,17.67-1.71,35.19-4.62,52.65-7.78,4.27-.77,8.53-1.56,12.79-2.35.17-.03-.13-2.48,0-2.5-18.5,3.44-37.03,6.83-55.72,9.08-18.6,2.24-37.4,3.35-56.12,2.08-9.21-.63-18.38-1.84-27.42-3.75-8.44-1.79-17.06-3.96-24.67-8.14s-12.73-10.12-17.41-16.94c-4.68-6.82-8.4-13.49-13.7-19.43C62.21,6.02,55.75,1.32,47.87.26c-4.49-.6-9.05-.1-13.46.79-3.93.79-7.8,1.94-11.49,3.51-7.34,3.14-13.99,8.08-18.23,14.93C.93,25.56-.45,32.49.13,39.55c1.12,13.65,14.92,24.47,28.46,22.6,6.97-.96,13.43-5.35,16.93-11.46,3.01-5.26,3.58-12.26,1.66-18.01-2.11-6.35-7.57-11.85-14.4-12.69-6.83-.84-14.18,2.93-15.58,9.8-1.08,5.3.2,12.12,5.44,14.76,5.77,2.91,12.89-1.98,12.97-8.21,0-.64.33-3.16-.19-3.66-.21-.2-1.56-.12-1.82-.14l-1.82-.14-3.64-.29s-.08,2.49,0,2.5Z"/>
      <path class="cls-2" d="M260.76,28.64c.55,14.32,2.58,28.52,3.98,42.77.16,1.63.31,3.25.45,4.88l.04.46c-.04.58.04.61.23.1.25-.26.42-.76.6-1.07.41-.71.83-1.41,1.26-2.1,1.66-2.65,3.5-5.17,5.48-7.58,3.95-4.8,8.44-9.14,13.16-13.18,5.39-4.62,11.08-8.88,16.77-13.11.12-.09.03-2.49,0-2.5-13.98-4.29-27.96-8.58-41.94-12.87.22.07-.25,2.42,0,2.5,13.98,4.29,27.96,8.58,41.94,12.87v-2.5c-10,7.44-20.11,14.99-28.35,24.43-1.96,2.25-3.81,4.6-5.5,7.06-.85,1.23-1.65,2.49-2.41,3.78-.29.49-.66,1.63-1.11,1.96l-.1.18c-.03-.31-.05-.62-.08-.92-.05-.62-.11-1.24-.16-1.85-.65-7.09-1.49-14.16-2.26-21.23-.89-8.14-1.69-16.29-2-24.47.02.6-.04,1.65,0,2.41v-.02Z"/>
      <path class="cls-1" d="M163.66,59.15c-.1,0-.14-.11-.13-.31.01-.2.07-.3.17-.29,1,.06,1.74.03,2.21-.11.48-.17.82-.48,1.01-.94.23-.45.38-1.18.44-2.18l.71-11.23c.05-.86,0-1.47-.14-1.81-.14-.38-.44-.63-.9-.76-.46-.16-1.27-.28-2.43-.35-.1,0-.14-.11-.13-.31.01-.23.07-.35.17-.34,1.36.09,2.29,0,2.77-.28.52-.3.82-.88.91-1.75.51-5.38,1.74-9.23,3.69-11.54,1.98-2.31,4.74-3.36,8.26-3.13,1.7.11,3.06.46,4.09,1.06,1.07.57,1.58,1.22,1.53,1.95-.03.5-.24.89-.62,1.16-.35.25-.76.35-1.22.32-.4-.03-.74-.15-1.03-.37-.25-.22-.53-.57-.84-1.05-.49-.73-1.02-1.28-1.6-1.65-.54-.4-1.25-.63-2.11-.68-1.93-.12-3.53.9-4.8,3.05-1.27,2.16-2.05,5.5-2.34,10.02l-1.13,17.86c-.07,1.03,0,1.79.21,2.27.2.48.63.82,1.29,1.03.65.21,1.71.36,3.18.45.1,0,.14.11.13.31-.01.2-.07.3-.17.29l-3.19-.25c-.7-.08-1.76-.16-3.19-.25l-2.8-.13c-.47,0-1.13-.02-2-.08ZM177.25,43.12c-2.1-.67-4.57-1.09-7.43-1.27l.07-1.1c2.03.13,4.58.12,7.67-.02.1,0,.18.13.23.37.05.24.07.52.05.85-.02.27-.08.55-.2.84-.12.26-.24.37-.37.33Z"/>
      <path class="cls-1" d="M230.54,54.24c-.07.01-.12-.08-.15-.28-.03-.2-.02-.3.05-.31.89-.15,1.53-.35,1.93-.59.43-.28.68-.66.77-1.15.08-.49.04-1.23-.13-2.21l-1.59-9.21c-.2-1.18-.48-2.01-.84-2.49-.32-.49-.78-.68-1.37-.58-.59.1-1.29.46-2.1,1.07h-.05c-.13.03-.24-.03-.34-.19-.09-.15-.1-.27-.01-.35l5.9-4.06.19-.08c.07-.01.16.02.27.11.11.05.17.12.19.22.04.23.14.89.29,1.98.15,1.09.36,2.37.61,3.85l1.6,9.26c.17.99.38,1.69.62,2.13.24.43.6.71,1.06.83.46.09,1.13.06,2.01-.09.1-.02.16.07.2.27.03.2,0,.3-.1.32-.76.13-1.37.22-1.83.26l-2.67.41-2.65.51c-.45.11-1.08.24-1.86.37ZM230.33,28.3c-.66.11-1.21.02-1.67-.27-.46-.29-.74-.77-.85-1.43-.11-.66,0-1.2.33-1.63.33-.43.83-.7,1.48-.81.66-.11,1.2-.02,1.62.28.42.3.69.78.81,1.43.11.66.02,1.2-.28,1.62-.3.42-.78.69-1.43.81Z"/>
      <path class="cls-1" d="M213.49,56.6c-.1.01-.16-.08-.19-.28-.03-.2.01-.3.11-.32.89-.12,1.54-.29,1.95-.51.4-.26.66-.63.76-1.11.1-.52.09-1.26-.04-2.21l-3.4-25.63c-.16-1.19-.39-2.03-.69-2.53-.3-.5-.75-.71-1.34-.63-.5.07-1.22.4-2.19,1h-.1c-.1.03-.19-.05-.28-.2-.05-.16-.04-.26.06-.31l5.94-3.87c.06-.04.14-.07.24-.08.1-.01.2.02.32.11.11.05.17.13.18.23l4.18,31.52c.13.96.29,1.66.48,2.11.23.44.57.73,1.02.87.46.14,1.13.15,2.02.03.1-.01.16.08.19.28.03.2-.01.3-.11.32-.73.1-1.32.16-1.79.19l-2.78.32-2.67.4c-.46.09-1.08.19-1.88.3Z"/>
      <path class="cls-1" d="M100.89,46.67c-1.31-1.42-2.14-3-2.47-4.73-.29-1.73-.11-3.44.52-5.11.66-1.7,1.68-3.19,3.08-4.48,1.59-1.47,3.29-2.34,5.09-2.6,1.85-.26,3.6-.04,5.25.67,1.69.7,3.12,1.68,4.27,2.93,1.34,1.44,2.15,3.03,2.43,4.77s.1,3.42-.55,5.07c-.61,1.65-1.56,3.08-2.86,4.28-1.52,1.4-3.18,2.28-4.99,2.64-1.78.33-3.55.19-5.29-.42-1.7-.61-3.19-1.61-4.48-3.01ZM102.58,47.09c1.24,1.35,2.68,1.94,4.32,1.8,1.63-.15,3.44-1.14,5.42-2.97,1.52-1.4,2.64-2.92,3.36-4.54.75-1.6,1.04-3.14.89-4.64-.13-1.51-.71-2.83-1.76-3.96-1.22-1.32-2.65-1.91-4.28-1.76-1.61.17-3.31,1.09-5.1,2.74-1.49,1.38-2.64,2.89-3.43,4.54-.8,1.64-1.15,3.25-1.07,4.81.08,1.56.63,2.89,1.65,3.99Z"/>
      <path class="cls-1" d="M76.64,20.55c-.06-.08-.01-.18.14-.3.16-.12.27-.15.33-.07.55.71,1.04,1.17,1.47,1.39.4.24.83.28,1.3.12.47-.16,1.1-.54,1.89-1.16l18.5-14.49c.94-.74,1.53-1.37,1.76-1.89.26-.54.18-1.07-.23-1.6-.45-.58-1.18-1.13-2.19-1.65l-.1-.05c-.08-.1-.07-.22.04-.35.09-.16.19-.21.31-.18l5.51,2.74c.07.03.15.11.26.24.29.37.21.92-.24,1.65-.4.74-1.15,1.53-2.25,2.4l-19.64,15.39c-.79.62-1.29,1.16-1.52,1.63-.2.5-.16,1.06.12,1.69.27.67.86,1.59,1.77,2.74.04.05-.02.14-.17.26-.16.12-.26.16-.3.11-.7-.89-1.24-1.61-1.63-2.16l-2.21-2.9-1.74-2.13c-.31-.35-.71-.82-1.18-1.43ZM93.89,21.33c-.8-1.02-1.37-2.02-1.7-2.99-.36-.95-.58-2.12-.67-3.54l2.6-1.14c-.36,1.59-.46,3.03-.31,4.31.2,1.28.81,2.58,1.84,3.89,1.09,1.39,2.59,2.06,4.49,2.01,1.93-.07,3.99-.96,6.17-2.67,2.2-1.73,3.53-3.55,3.98-5.46.47-1.94.12-3.65-1.05-5.15-.82-1.05-1.85-1.79-3.08-2.23-1.21-.41-2.74-.69-4.6-.84l.07-.56c2.57.15,4.69.56,6.37,1.24,1.7.66,3.04,1.62,4.03,2.88.84,1.08,1.34,2.3,1.48,3.67.14,1.37-.12,2.76-.79,4.18-.67,1.41-1.74,2.7-3.21,3.85-1.97,1.54-3.98,2.4-6.05,2.58-2.04.16-3.9-.17-5.58-.96-1.66-.77-2.99-1.79-3.97-3.05Z"/>
      <path class="cls-1" d="M130.64,42.38c2.27-1.67,3.98-2.75,5.11-3.24,1.14-.52,2.11-.68,2.92-.46.71.19,1.33.56,1.87,1.12.54.56.74,1.11.59,1.66-.11.42-.35.73-.72.95-.37.21-.79.25-1.28.13-.29-.08-.53-.19-.73-.35-.16-.18-.35-.42-.58-.72-.22-.33-.44-.6-.67-.8-.22-.2-.51-.34-.87-.44-.48-.13-1.08-.03-1.79.3-.71.33-1.98,1.15-3.81,2.45l-.05-.58ZM122.47,54.79c-.1-.03-.12-.14-.07-.33.05-.19.13-.28.22-.25.87.23,1.54.32,2,.27.47-.08.83-.33,1.08-.75.28-.41.55-1.1.81-2.06l2.55-9.57c.29-1.1.37-1.92.24-2.47-.13-.55-.5-.91-1.11-1.07-.52-.14-1.45-.13-2.8.03l-.1-.03c-.13-.03-.21-.12-.24-.27.01-.17.09-.27.24-.3l6.31-1.16c.07-.02.17,0,.3.03.29.08.5.53.62,1.36.12.83.03,1.82-.28,2.98l-2.99,11.21c-.26.97-.33,1.7-.23,2.22.14.52.5.96,1.1,1.33.6.33,1.58.68,2.93,1.04.13.03.17.15.12.34-.05.19-.14.27-.27.24-1.03-.27-1.85-.51-2.45-.7l-3.56-1-2.67-.66c-.43-.08-1.01-.22-1.75-.42Z"/>
      <path class="cls-1" d="M148.8,59.31c-1.35-.36-2.38-.96-3.09-1.81-.71-.84-.87-1.97-.49-3.39l3.03-11.35c.22-.84.32-1.45.28-1.84,0-.38-.15-.66-.45-.84-.29-.21-.82-.43-1.59-.63-.13-.03-.17-.15-.12-.34.06-.23.15-.32.28-.29,1.3.31,2.43.25,3.41-.18.99-.46,1.69-1.22,2.11-2.28.03-.1.17-.11.43-.04.23.06.33.14.3.24l-4.44,16.67c-.7,2.61.23,4.25,2.77,4.93,1.48.39,2.89.29,4.23-.32l.11-.02c.13.03.2.14.23.32.03.15-.01.24-.13.28-1.44.62-2.7.99-3.76,1.12-1.04.14-2.07.07-3.1-.21ZM157.98,43.7c-1.92-1.06-4.3-1.97-7.14-2.73l.28-1.06c2.03.54,4.58,1.05,7.67,1.53.06.02.09.16.09.44.04.25.02.52-.06.81-.07.26-.21.51-.41.77-.17.23-.31.31-.43.25Z"/>
      <path class="cls-1" d="M192.93,58.66c-1.91-.28-3.54-.99-4.89-2.13-1.31-1.17-2.25-2.6-2.8-4.3-.55-1.73-.69-3.54-.42-5.42.31-2.14,1.09-3.88,2.33-5.22,1.28-1.36,2.78-2.29,4.5-2.78,1.76-.52,3.48-.65,5.16-.4,1.95.29,3.57,1.01,4.88,2.18s2.23,2.6,2.76,4.3c.56,1.67.72,3.37.46,5.12-.3,2.04-1.04,3.77-2.23,5.18-1.18,1.38-2.64,2.38-4.38,3-1.7.59-3.5.75-5.38.47ZM194.5,57.93c1.81.27,3.31-.17,4.49-1.31,1.18-1.14,1.96-3.05,2.36-5.72.3-2.04.22-3.93-.23-5.64-.42-1.71-1.16-3.1-2.22-4.17-1.05-1.1-2.34-1.76-3.85-1.98-1.78-.26-3.26.18-4.44,1.32-1.15,1.15-1.89,2.92-2.25,5.33-.3,2.01-.24,3.91.18,5.69.41,1.78,1.14,3.25,2.18,4.41,1.04,1.16,2.31,1.85,3.79,2.07Z"/>
      <path class="cls-1" d="M249.26,49.94c-1.93-.07-3.63-.59-5.1-1.58-1.43-1.02-2.52-2.34-3.26-3.97-.74-1.66-1.08-3.44-1.02-5.34.08-2.17.65-3.98,1.74-5.44,1.12-1.5,2.51-2.58,4.17-3.26,1.69-.71,3.39-1.03,5.09-.97,1.97.07,3.66.61,5.1,1.63s2.5,2.34,3.21,3.96c.75,1.59,1.09,3.27,1.03,5.04-.07,2.07-.62,3.86-1.64,5.4-1.02,1.5-2.36,2.65-4.02,3.46-1.63.78-3.39,1.13-5.29,1.07ZM250.75,49.04c1.83.06,3.27-.54,4.31-1.8,1.04-1.26,1.61-3.25,1.71-5.94.07-2.07-.21-3.93-.86-5.58-.61-1.66-1.5-2.95-2.67-3.89-1.17-.97-2.52-1.49-4.05-1.54-1.8-.06-3.22.54-4.27,1.8-1.01,1.27-1.56,3.11-1.64,5.55-.07,2.03.2,3.91.81,5.63.61,1.72,1.49,3.1,2.66,4.14,1.16,1.04,2.5,1.59,4,1.64Z"/>
    </g>
  </g>
</svg>