<?xml version="1.0" encoding="UTF-8"?>
<svg id="Layer_2" data-name="Layer 2" xmlns="http://www.w3.org/2000/svg" viewBox="0 0 440.46 145.03">
  <defs>
    <style>
      .cls-1 {
        fill: #231f20;
      }
    </style>
  </defs>
  <g id="doodle">
    <g>
      <path class="cls-1" d="M.23,76.74c4.38,11.2,13.27,19.99,23.74,25.66,12.35,6.68,26.58,8.92,40.46,9.3,6.48.18,13.53.26,19.33-3.07,5.14-2.95,8.28-8.16,10.89-13.3s5.21-10.68,8.62-15.62,7.62-9.75,12.15-13.95c20.11-18.66,47.22-27.02,74.05-29.7s56.72-.39,81.84,12.27c10.88,5.48,20.89,12.81,29.08,21.85,4.11,4.54,7.77,9.52,10.78,14.86s6.06,12.28,5.77,18.67-4.24,12.1-9.27,16.2-10.84,7.71-16.67,10.78-12.29,5.78-18.77,7.81c-6.09,1.92-12.97,4.06-19.41,4.03-2.91-.01-5.75-.87-7.56-3.28-1.66-2.21-2.19-5.05-2.56-7.73-1.07-7.59-1.7-15.37-.14-22.93,2.48-11.98,10.7-20.59,21.59-25.64,11.44-5.31,24.45-7.09,36.92-7.88,14.7-.94,29.53.09,43.97,3.07s28.27,8.62,42.41,13.08c6.82,2.15,14.47,4.88,21.72,4.09,5.93-.65,11.48-3.82,15.95-7.66,14.15-12.16,18.61-34.02,12.81-51.44-1.53-4.61-3.87-8.88-6.93-12.65.4.49-.42,1.99,0,2.5,6.64,8.17,10.04,19.16,8.93,29.66-1.07,10.06-5.28,19.93-12.42,27.19-3.99,4.06-8.99,7.48-14.47,9.11-7.21,2.14-14.72-.08-21.69-2.11-14.49-4.24-28.39-10.24-43.14-13.59s-29.45-4.61-44.3-3.91c-12.89.6-26.37,2.25-38.32,7.4-11.13,4.8-19.95,13.16-22.79,25.24-1.17,4.97-1.31,10.08-1.24,15.16.09,5.79.31,12.17,1.93,17.76.81,2.79,2.38,5.27,5.18,6.37s6.19.69,9.19.17c6.68-1.16,13.26-2.95,19.62-5.3s12.74-5.38,18.68-8.91c5.61-3.34,11.64-7.08,15.9-12.1,7.25-8.54,5.71-21.38,1.48-30.93-5.01-11.32-13.59-21.21-23.09-29.02-21.14-17.35-48.35-24.78-75.33-25.62-28.28-.88-58.54,3.67-83.16,18.32-10.73,6.39-20.39,14.75-27.71,24.9-3.66,5.07-6.37,10.55-9.15,16.12-2.56,5.14-5.54,10.46-10.49,13.66-5.7,3.69-12.83,3.75-19.39,3.61-7.2-.16-14.4-.81-21.45-2.29-12.77-2.69-25.09-8.33-34.13-17.94-4.04-4.29-7.26-9.26-9.41-14.75.28.72-.29,1.77,0,2.5H.23Z"/>
      <path class="cls-1" d="M431.04,23.58c-2.68-9.42-9.8-17.18-18.82-20.91-9.78-4.05-21.14-3.42-30.54,1.38s-16.04,13.13-18.4,23.18c-1.01,4.3-1.18,8.96-.7,13.35.58,5.31,2.75,10.21,6.35,14.18,7.15,7.89,18.51,11.2,28.92,10.88,2.65-.08,5.33-.52,7.72-1.7,2.24-1.11,4.09-2.86,5.67-4.77,3.18-3.85,5.61-8.41,6.97-13.21,1.12-3.98,1.39-8.27,1-12.38-.48-5.02-2.76-9.56-6.34-13.1-6.94-6.86-19.16-10.83-26.4-2.22-2.9,3.46-4.2,7.84-4.23,12.3s.48,8.84,3.9,11.88c3.23,2.87,8.6,3.57,11.85.38,2.89-2.83,2.84-7.12,2.79-10.88-.03-1.98-.25-3.93-.56-5.89.13.81-.13,1.68,0,2.5.16.98.3,1.96.4,2.95.06.58.07,1.16.13,1.73.07.69.11-.97,0-.29-.06.38-.04.78-.09,1.17-.2,1.85-.72,3.7-1.82,5.22-2.45,3.37-6.97,3.82-10.54,2.05-1.86-.92-3.33-2.4-4.33-4.21-.5-.89-.88-1.84-1.15-2.83-.16-.56-.28-1.13-.37-1.7-.04-.26-.07-.51-.1-.77-.03-.28.07-1.72-.08-.7-.17,1.19.14-1.04.17-1.27.07-.49.16-.98.27-1.47.25-1.08.58-2.13,1.01-3.15.8-1.91,1.92-3.7,3.35-5.21,6.96-7.38,17.84-4.1,24.61,1.79,3.44,3,6.02,6.89,7.07,11.36.23,1,.39,2.02.48,3.04.03.37.05.74.07,1.11-.05-.97,0-.32-.02-.08-.08.77-.12,1.53-.23,2.29-.32,2.23-.91,4.42-1.7,6.53-1.58,4.22-3.97,8.3-7.03,11.62-3.34,3.63-7.57,5.26-12.46,5.41-9.59.28-19.97-2.48-27.13-9.08-3.32-3.06-5.9-6.91-7.19-11.26-.35-1.17-.61-2.37-.79-3.58-.12-.82-.21-1.64-.26-2.46-.02-.3-.04-.61-.04-.92,0,.56.02-.17.03-.38.14-2.48.56-4.95,1.25-7.34,2.6-9.04,8.86-16.62,17.1-21.11s18.24-5.74,27.38-3.23,16.24,8.28,20.46,16.28c1.01,1.92,1.81,3.94,2.4,6.02-.22-.77.22-1.72,0-2.5h0Z"/>
    </g>
  </g>
</svg>