<?xml version="1.0" encoding="UTF-8"?>
<svg id="Layer_2" data-name="Layer 2" xmlns="http://www.w3.org/2000/svg" viewBox="0 0 369.58 94.07">
  <defs>
    <style>
      .cls-1 {
        fill: #231f20;
      }
    </style>
  </defs>
  <g id="doodle">
    <g>
      <path class="cls-1" d="M72.55,9.03c-3.62-6.51-12.42-7.48-19.05-8.32-8.39-1.07-17.19-1.19-25.28,1.59-7.96,2.73-14.26,8.39-19.59,14.74-2.76,3.28-5.52,6.71-6.9,10.83-1.27,3.78-1.54,7.83-1.61,11.79-.22,14.07,3.19,28.65,12.47,39.6,10.08,11.9,26.58,17.32,41.77,13.73,3.89-.92,7.88-2.34,10.39-5.61,2.18-2.84,3.03-6.47,3.4-9.97s.35-7.19.36-10.78c.01-3.86-.04-7.72-.38-11.57-.73-8.27-2.85-16.61-7.82-23.4-4.56-6.24-11.48-10.57-19.34-10.77-3.73-.09-7.49.79-10.64,2.81s-5.76,5.28-7.55,8.72c-3.44,6.59-4.95,14.4-4.43,21.81.26,3.81,1.59,7.4,4.58,9.9,2.7,2.25,6.15,3.39,9.53,4.18,3.66.85,7.74,1.8,11.5,1.27s6.38-3.19,7.44-6.84c.87-2.97.92-6.15.9-9.22-.03-3.78-.53-7.67-2.36-11.04-1.69-3.11-4.5-5.78-8-6.66-3.96-1-8.14.51-11.23,2.99-2.66,2.14-4.35,4.86-4.33,8.32.01,3.1,1.46,5.73,3.88,7.66s6.59,3.73,9.72,2.34c2.4-1.07,2.51-4.39,1.94-6.63-.83-3.29-3.9-5.76-7.28-5.85,0,0-.02,1.25,0,1.25,3.15.09,6.01,2.23,7.08,5.19.57,1.58.41,3.33-1.04,4.39-1.24.91-2.94.96-4.41.74-3.1-.45-6.1-2.22-8.01-4.7-.91-1.19-1.67-2.66-1.81-4.17-.17-1.71.85-3.56,1.86-4.87,2.21-2.87,5.68-5.01,9.26-5.58,3.39-.54,6.69.54,9.23,2.81s4.23,5.63,4.94,9.07c.84,4.02.83,8.55-.28,12.53-.91,3.24-2.96,5.94-6.34,6.79s-7,.07-10.33-.57c-6.25-1.19-13.3-3.43-15.58-10.07-1.46-4.27-.93-9.04-.04-13.38.77-3.73,2-7.42,3.81-10.78,3.41-6.35,9.12-10.82,16.49-11.16,6.98-.32,13.64,2.76,18.39,7.78s7.83,12.07,9.25,19.04c.87,4.29,1.23,8.67,1.36,13.05.14,4.96.25,10.12-.41,15.06-.43,3.19-1.3,6.45-3.29,9.04-2.27,2.96-5.74,4.39-9.25,5.33-13.64,3.65-28.92-.08-39.3-9.66S1.15,58.62.27,45.1c-.29-4.38-.2-8.91.71-13.22.84-3.94,2.68-7.3,5.12-10.46,4.54-5.9,9.78-11.58,16.32-15.28,6.75-3.81,14.55-5.02,22.22-4.87,3.9.08,7.79.49,11.65,1.07,3.2.49,6.43,1.06,9.44,2.29,2.82,1.16,5.32,2.94,6.83,5.64-.17-.31.18-.93,0-1.25h0Z"/>
      <path class="cls-1" d="M72.18,9.65c1.18,2.21,2.06,4.54,3.05,6.83s2.08,4.45,3.32,6.56,2.53,4.04,3.98,5.92c.68.88,1.43,1.7,2.5,2.08,1.14.4,2.4.29,3.58.19.04,0-.03-1.25,0-1.25-1.13.1-2.31.19-3.41-.14s-1.87-1.11-2.57-2c-1.51-1.91-2.85-3.96-4.08-6.06s-2.29-4.19-3.24-6.38c-1.02-2.35-1.92-4.75-3.13-7.01.17.32-.18.92,0,1.25h0Z"/>
      <path class="cls-1" d="M88.25,31.28c2.68-.3,5.1-1.42,7.5-2.6s4.01-2.41,5.41-4.64c2.54-4.06,5.35-8.01,9.68-10.33,4.1-2.2,9.67-2.94,12.7,1.29s3.37,10.61,3.06,15.82-1.39,10.52-4.23,15.04c-2.49,3.96-6.08,7.75-9.99,10.32-2.18,1.44-4.59,2.27-7.18,2.6s-4.97.33-7.09-1.12c-1.9-1.29-3.14-3.32-3.9-5.45-.95-2.65-1.56-5.64-.51-8.34,1.89-4.87,6.5-9.05,10.85-11.74,2.19-1.35,4.8-2.83,7.42-2.96s4.82,1.32,5.06,3.97v-.31c0,1.54-1.45,3.23-2.43,4.26-1.34,1.41-2.87,2.65-4.45,3.78-1.22.87-8.69,5.94-8.92,1.94v1.23c.4-2.19,3.08-4.03,4.81-5.21.2-.14-.19-1.12,0-1.25-2,1.37-4.84,3.34-4.81,6,.04,3.35,4.29,1.46,5.97.49,2.96-1.7,6.05-3.94,8.19-6.62,1.32-1.64,1.79-3.48,1.65-5.54-.22-3.28-3.53-4.42-6.36-3.81-3.17.69-6.28,2.68-8.82,4.64s-4.91,4.44-6.72,7.18c-1.47,2.24-2.1,4.51-2.08,7.17.05,6.11,3.07,13.35,10.13,13.11,3.51-.12,6.83-1.1,9.71-3.12,2.68-1.89,5.1-4.31,7.19-6.84,4.55-5.49,6.25-12.09,6.56-19.1.24-5.46.32-11.54-2.48-16.41-4.25-7.41-13.67-3.25-18.26,1.55-1.38,1.44-2.57,3.05-3.65,4.73-.96,1.5-1.77,3.15-3.11,4.36s-3.19,1.99-4.84,2.76c-1.94.91-3.92,1.66-6.05,1.9-.06,0,.04,1.25,0,1.25h0Z"/>
      <path class="cls-1" d="M122.43,13.72c2.32.86,4.7,1.76,6.65,3.32s3.14,3.97,4.46,6.15,2.9,4.42,4.91,6.13,4.35,2.82,6.83,3.51c4.68,1.31,10.27,1.54,14.83-.37,2.19-.92,4.43-2.45,5.32-4.74s.85-5.43.92-7.97c.04-1.62.13-3.33-.17-4.92-.48-2.52-2.45-4.38-4.34-5.97-3.72-3.12-8.28-5.2-13.05-6.05-2.29-.41-4.63-.53-6.95-.34-2.47.2-5.01.55-6.18,3.02-.76,1.61-1.01,3.42-1,5.19.01,2.27,1,3.86,2.45,5.55,2,2.32,4.17,3.97,7.17,4.72,2.49.62,6.29,1.51,8.08-1,.74-1.05.76-2.98.33-4.17-.96-2.74-4.05-3.41-6.57-3.87.06.01-.08,1.23,0,1.25,2.74.5,6.75,1.51,6.78,5.02v-1.07c-.47,4.84-7.59,3.13-10.48,2.01-1.97-.77-3.52-2.12-4.91-3.68s-3.06-3.4-2.73-5.64c.27-1.82.9-4,2.55-5.03s3.87-1.04,5.68-1.11c3.94-.15,7.91.59,11.56,2.08s6.93,3.68,9.55,6.53c2.08,2.27,2.34,4.67,2.18,7.71-.12,2.29-.04,5.01-1.12,7.1-1.83,3.54-6.47,5-10.15,5.36-4.08.4-8.45-.12-12.23-1.73-4.58-1.94-7.45-5.69-9.89-9.87-1.19-2.03-2.34-3.99-4.27-5.4s-4.05-2.17-6.19-2.97c.13.05-.14,1.2,0,1.25h0Z"/>
      <path class="cls-1" d="M154.07,34.55c17.38-1.89,31.69,10.27,47.24,15.73,8.26,2.9,16.9,3.35,25.55,2.45,3.99-.41,8.48-.72,12.06-2.71,3.12-1.73,5.1-4.81,6.66-7.92,2.74-5.47,6.02-12.75.93-17.93-2.6-2.64-6.26-4.16-9.71-5.31-3.87-1.29-7.91-2.04-11.98-2.23-7.06-.32-15.23.74-20.95,5.25-4.42,3.48-7.23,10.85-2.27,15.15,2.92,2.53,6.96,3.23,10.66,3.73s7.61.84,11.31-.03c1.75-.41,3.65-1.1,5.03-2.29.93-.8,1.16-1.63,1.15-2.78-.01-1.36-.66-2.15-1.88-2.77-1.76-.9-3.73-1.49-5.65-1.92-2.08-.47-4.19-.68-6.32-.68,0,0-.01,1.25,0,1.25,2.74,0,5.45.37,8.08,1.14,1.86.54,5.66,1.39,5.76,3.84v-1.23c-.44,2.97-5.1,4.09-7.56,4.47-3.28.51-6.64.2-9.91-.24-5.42-.73-15.45-3.29-12.6-10.85,1.99-5.29,7.56-8.2,12.73-9.55,6.74-1.77,14.03-1.67,20.78-.05,3.3.79,6.61,1.93,9.58,3.58,2.54,1.41,5.02,3.41,5.99,6.25,1.21,3.53-1.01,7.43-2.48,10.56-1.24,2.63-2.63,5.29-4.73,7.35-2.44,2.4-5.63,3.37-8.93,3.91-3.69.61-7.44,1.01-11.18,1.15-7.49.29-14.78-.79-21.8-3.46-14.84-5.66-28.81-16.93-45.55-15.11-.05,0,.04,1.25,0,1.25h0Z"/>
      <path class="cls-1" d="M217.57,30.32c-1.55.15-5.02.42-5.25-1.84v1.25c.11-1.12,1.5-2.02,2.39-2.53,1.06-.61,2.23-.98,3.42-1.21,2.92-.55,5.91-.16,8.85-.22.02,0,0-1.25,0-1.25-4.29.09-9.18-.8-12.94,1.85-.69.49-1.65,1.21-1.73,2.11-.04.45-.07,1.01.02,1.45.21.96,1.31,1.44,2.17,1.62,1,.21,2.05.11,3.06.01.05,0-.03-1.25,0-1.25h0Z"/>
      <path class="cls-1" d="M236.54,50.99c4.25,1.09,7.97,3.45,11.87,5.36s7.94,3.54,12.07,4.87c8.2,2.64,16.77,4.12,25.38,4.37,6.72.19,15.9.44,20.35-5.66,4.11-5.63,2.22-13.31,4.15-19.65,1.18-3.87,3.91-6.71,7.65-8.21,4.66-1.88,9.79-1.47,14.68-1.07-.02,0,.04-1.25,0-1.25-7.54-.61-17.51-.9-21.46,7.07-3.04,6.13-1.03,13.45-3.77,19.67-3.11,7.07-11.46,7.83-18.23,7.89-8.69.07-17.38-1.12-25.74-3.49-4.61-1.31-9.12-2.99-13.46-5.01s-8.68-4.9-13.49-6.13c.09.02-.11,1.22,0,1.25h0Z"/>
      <path class="cls-1" d="M333.45,29.79c-2.13,0-3.98,1.33-4.92,3.21-.75,1.51-.83,3.15-.82,4.8.04,4.33,2.02,8.33,4.64,11.7,1.42,1.82,3.05,3.38,5.28,4.12s4.72.81,7.07.77c4.62-.08,9.28-1.18,12.71-4.45,3.07-2.92,4.92-7.02,5.48-11.19.43-3.17.42-6.55-2.58-8.46-3.94-2.53-9.8-2.84-14.28-1.98-2.33.45-4.2,1.6-5.17,3.82-.65,1.49-.8,3.09-.8,4.7,0,1.94.39,3.8,2.28,4.75s5.2,1.3,7.24.53c1.71-.64,2.28-2,2.24-3.69-.07-2.5-3.33-2.38-5.18-2.45,0,0-.03,1.25,0,1.25,1.68.06,4.97-.08,5.18,2.2v-1.25c-.43,3.78-5.87,3.33-8.49,2.53-3.78-1.15-3.79-5.4-1.94-8.32,2.13-3.36,7.09-3.4,10.62-3.14,3.25.23,7.47.91,9.76,3.51s.96,6.93-.23,9.81c-1.25,3.03-3.27,5.77-5.98,7.63-3.12,2.13-6.92,2.85-10.64,2.94s-7.58-.08-10.43-2.55c-3-2.6-5.35-6.62-6.32-10.45-.55-2.17-.58-4.38.64-6.35,1.01-1.64,2.71-2.73,4.65-2.73.01,0,0-1.25,0-1.25h0Z"/>
      <path class="cls-1" d="M333.28,31.1c2.53-1.26,5.33-2.83,6.18-5.73.42-1.42.44-3.55-.27-4.87-1.44-2.64-5.34-3.38-7.86-4.5s-5.11-2.91-5.4-5.78v1.23c.13-3.18,4.79-4.11,7.27-4.28,3.41-.22,6.74.64,9.99,1.56s6.7,1.78,10.16,2.23,7.12.65,10.69.84c-.01,0,.03-1.25,0-1.25-5.38-.29-10.8-.57-16.07-1.79s-9.96-3.3-15.2-2.81c-2.1.2-4.9.82-6.26,2.59-.64.83-.66,1.92-.58,2.92.39,5.01,7.03,6.11,10.55,7.97,1.05.56,2.12,1.25,2.71,2.32s.45,2.15-.07,3.26c-1.12,2.39-3.59,3.72-5.84,4.84-.17.09.16,1.17,0,1.25h0Z"/>
      <path class="cls-1" d="M363.31,11.83c1.16.02,2.37.02,3.42-.56.88-.49,1.56-1.31,2-2.21.51-1.04.69-2.2.73-3.34s.01-2.26-.08-3.38c.03.41-.03.84,0,1.25.02.3.05.6.06.9,0,0,0,.44.01.24,0-.17-.02.32-.03.37-.04.51-.12,1.01-.25,1.51-.21.81-.57,1.58-1.09,2.24-.48.61-1.11,1.12-1.84,1.41-.93.36-1.95.34-2.93.33,0,0-.02,1.25,0,1.25h0Z"/>
      <path class="cls-1" d="M34.71,44.65c-.6-.09-1.28.1-1.54.7-.14.31-.16.67-.19,1.01-.04.65-.03,1.3-.01,1.95,0,.08,0-.1,0-.06,0-.12,0-.25,0-.37,0-.26,0-.51,0-.77,0-.34-.01,1.08,0,.74,0-.03,0-.06,0-.09,0-.09,0-.19.02-.28.01-.15.03-.3.05-.44.05-.26.13-.53.32-.73.33-.37.87-.46,1.34-.39,0,0,0-.58,0-.62s.02-.62,0-.62h0Z"/>
      <path class="cls-1" d="M105.81,39.03c.2-.15.42-.26.66-.31.06-.01.12-.02.18-.03.07,0,.11.02.13.08.05.12.07.26.08.39v-.02s0,.05,0,.08c0,.08,0-.1,0-.06,0-.12,0-.25,0-.37,0-.26,0-.51,0-.77,0-.14-.02-.29-.06-.42-.02-.05-.03-.13-.09-.15s-.14,0-.19.02c-.26.05-.5.16-.71.32-.01,0,0,.2,0,.18,0,.15,0,.29,0,.44s0,.29,0,.44v.1s0,.06,0,.09h0Z"/>
      <path class="cls-1" d="M146.29,11.89c-.15-.04-.32-.04-.46.03s-.25.2-.32.34c-.16.33-.18.71-.2,1.07-.02.25,0,.51,0,.77,0,.12,0,.25,0,.37,0,.01,0,.12,0,.06,0-.04,0-.09,0-.13v.02c.02-.33.06-.68.22-.98.07-.13.17-.24.31-.29s.3-.06.44-.02c0,0,0-.21,0-.18,0-.15,0-.29,0-.44s0-.29,0-.44c0-.02,0-.18,0-.18h0Z"/>
      <path class="cls-1" d="M226.91,25.8c.79-.21,1.26.61,1.49,1.23.06.18.12.35.2.53s.16.36.21.55c.01.04.02.09.03.14-.17-.77,0-1.27,0-.83,0,.2,0,.4,0,.6,0,.28-.04.62.05.9-.01-.04,0-.16,0-.18,0-.15,0-.29,0-.44s0-.29,0-.44c0-.05.01-.13,0-.18-.01-.03-.02-.05-.02-.08-.07-.34-.08-.03-.01.92,0-.05,0-.1,0-.15,0-.22,0-.43,0-.65,0-.27.02-.55-.03-.82-.04-.19-.13-.37-.2-.55s-.14-.37-.21-.55c-.23-.62-.69-1.44-1.49-1.23-.03,0,0,.57,0,.62,0,.05.03.62,0,.62h0Z"/>
    </g>
  </g>
</svg>