<?xml version="1.0" encoding="UTF-8"?>
<svg id="Layer_2" data-name="Layer 2" xmlns="http://www.w3.org/2000/svg" viewBox="0 0 366.28 117.88">
  <defs>
    <style>
      .cls-1 {
        fill: #231f20;
      }
    </style>
  </defs>
  <g id="Layer_1-2" data-name="Layer 1">
    <g>
      <path class="cls-1" d="M43.26,35.39c1.08-.62,2.15-1.46,2.33-2.77.14-1.03.19-2.38-.07-3.4-.55-2.24-3.23-3.71-5.26-4.32-1.04-.31-2.25-.52-3.31-.19-1.21.38-1.85,1.63-2.46,2.66-1.99,3.39-3.42,7.25-4.31,11.08-.35,1.54-.52,3.05-.53,4.63,0,1.83-.19,3.95,1.09,5.44s3.72,2.07,5.62,2.48,3.93.61,5.91.58c7.62-.11,15.7-3.67,18.84-11.02,1.37-3.2,1.49-6.77,1.28-10.2-.23-3.75-1.54-7.42-3.7-10.5-5-7.12-14.07-9.57-22.34-7.77-8.8,1.91-15.62,8.39-19.17,16.51-1.77,4.04-2.76,8.41-2.96,12.81-.18,4.01-.12,8.16,1.15,12,1.41,4.25,4.34,7.58,8.33,9.58s8.22,2.63,12.47,3.01c5.22.47,10.66.74,15.78-.62,4.85-1.29,9.22-3.93,13.26-6.85s7.8-5.86,10.06-10.2c1.91-3.68,2.46-7.72,2.47-11.81,0-9-2.95-18.4-9.8-24.57-3.66-3.3-8.17-5.71-12.59-7.83S45.84.18,40.7.01c-9.41-.3-18.49,4.26-24.92,10.94S4.95,27.02,2.49,36.28c-1.32,4.97-2.15,10.07-2.24,15.22-.08,4.57.07,9.19,1.23,13.64s3.72,8.43,7.68,11.11,8.33,4.08,12.74,5.42c10.07,3.07,20.47,5.19,30.98,6.01s21.28.33,31.66-1.91,19.8-6.56,29.46-10.62c4.74-1.99,9.55-3.85,14.51-5.23.23-.06-.2-2.45,0-2.5-9.44,2.62-18.23,7-27.29,10.63s-18.55,6.08-28.33,7.01-19.49.51-29.11-.91-18.84-3.54-27.68-6.92c-3.87-1.48-7.72-3.44-10.52-6.57-3.05-3.4-4.32-7.9-4.92-12.34-.73-5.4-.13-10.81,1.02-16.11.99-4.56,2.37-9.06,4.2-13.36,3.43-8.05,8.62-15.54,15.94-20.49S38.15,1.21,46.84,3.41c4.59,1.17,8.9,3.27,13.03,5.55s7.82,4.71,10.71,8.25,4.83,7.7,6,12.02c.58,2.13.96,4.33,1.09,6.54.02.26.03.52.04.78,0-.18.05-.95-.02-.07-.04.56-.07,1.13-.14,1.69-.13,1.08-.32,2.16-.59,3.21-1.08,4.23-3.45,7.77-6.69,10.67s-7.24,5.76-11.22,7.93c-4.22,2.29-8.7,3.61-13.5,3.84-4.53.21-9.22-.11-13.7-.85-3.86-.64-7.76-1.8-10.93-4.17-3.45-2.58-5.46-6.42-6.27-10.59-1.56-8.08,1.47-17.28,6.39-23.72s12.65-10.54,20.89-10.48,15.01,4.12,18.45,11.25c.78,1.61,1.35,3.32,1.69,5.08.08.44.15.88.21,1.32.03.27.06.54.08.8.01.15.09,1.21.04.26s-.03.07-.04.23c-.02.22-.04.44-.07.66-.07.54-.16,1.09-.28,1.62-.77,3.46-2.7,6.55-5.39,8.85-5.46,4.66-13.39,5.9-20.27,4.41-1.81-.39-3.99-.87-5.36-2.2-.37-.36-.67-.79-.88-1.26-.12-.27-.21-1.37-.39-1.52.06.05-.13,1.59-.03.45.02-.24.04-.47.07-.71.04-.37.1-.74.17-1.1.66-3.65,1.99-7.27,3.64-10.59,1.07-2.14,2.13-4.64,4.87-4.5,2.18.11,4.55,1.25,6.02,2.86.34.37.64.77.84,1.23.08.18.13.38.2.56.42,1.18.36-2.16.03-1.35-.49,1.18-1.16,1.88-2.29,2.52-.37.21.35,2.3,0,2.5h0Z"/>
      <path class="cls-1" d="M128.19,69.95c6.4-2.94,13.33-4.64,20.37-4.93s13.87.97,20.57,2.97,13.32,4.65,20.08,6.68,14.06,3.54,21.25,4.33,14.36.95,21.52.39c6.67-.53,13.16-1.99,18.87-5.59,8.99-5.67,16.68-15.73,28.14-15.98,12.86-.28,23.32,10.86,36.36,9.19.12-.02-.09-2.49,0-2.5-11.66,1.5-21.33-7.21-32.44-8.92-5.52-.85-10.74.56-15.47,3.43s-8.84,6.73-13.3,10.03c-5.09,3.77-10.59,6.2-16.86,7.23-7.1,1.17-14.48,1.16-21.64.69s-14.4-1.61-21.42-3.39-13.53-4.28-20.27-6.54c-7.5-2.51-15.17-4.54-23.13-4.55s-15.53,1.72-22.61,4.97c-.33.15.3,2.36,0,2.5h0Z"/>
      <path class="cls-1" d="M299.27,30.99c4.4-.92,8.68.1,12.75,1.81,4.3,1.81,8.46,4.03,12.65,6.09,8.84,4.35,17.61,8.86,26.28,13.53,4.98,2.68,9.93,5.41,14.85,8.19v-2.5c-19.86,13.28-39.02,27.6-57.37,42.9-5.16,4.3-10.25,8.68-15.28,13.13-.13.12-.01,1.07-.01,1.25s.14,1.13.01,1.25c17.89-15.83,36.61-30.72,56.07-44.58,5.47-3.9,11-7.71,16.58-11.44.11-.07.08-2.45,0-2.5-8.58-4.85-17.25-9.54-26-14.08s-17.21-8.88-25.98-12.93c-4.6-2.13-9.47-3.68-14.56-2.61-.18.04.15,2.47,0,2.5h0Z"/>
      <path class="cls-1" d="M299.03,30.86c5.44,2.78,9.88,7.24,12.77,12.61,1.41,2.62,2.45,5.44,3.05,8.36.32,1.56.52,3.15.57,4.75-.04-1.22-.04.32-.05.47-.02.47-.06.93-.09,1.4-.06.97-.12,1.94-.14,2.92-.02,1.07-.02,2.14,0,3.21.02.78.08,1.57.22,2.34.05.31.87,3.03.71,3.13l.03-.76c-.04.25-.09.5-.17.74-.11.36-.26.71-.44,1.05-.36.69-.83,1.32-1.33,1.92-1.05,1.25-2.2,2.41-3.27,3.65-4.46,5.18-8.27,10.91-11.34,17.02-3.45,6.86-5.93,14.18-7.39,21.72-.16.81.15,1.7,0,2.5,2.75-14.19,9.18-27.6,18.59-38.58,1.97-2.3,5.14-4.71,5.39-7.95.08-1.09.09-2.27-.02-3.36-.1-.99-.42-1.94-.63-2.9s-.35-2.06-.3-2.84c.36-6.21.45-12.2-1.91-18.08-2.71-6.76-7.78-12.49-14.27-15.81.32.17-.35,2.32,0,2.5h0Z"/>
      <path class="cls-1" d="M292.44,116.72l.86-.06s0-.42,0-.37c0-.29,0-.59,0-.88s0-.59,0-.88c0-.04,0-.37,0-.37l-.86.06s0,.42,0,.37c0,.29,0,.59,0,.88s0,.59,0,.88c0,.04,0,.37,0,.37h0Z"/>
    </g>
  </g>
</svg>