<?xml version="1.0" encoding="UTF-8"?>
<svg id="Layer_2" data-name="Layer 2" xmlns="http://www.w3.org/2000/svg" viewBox="0 0 309.43 112.36">
  <defs>
    <style>
      .cls-1 {
        fill: #231f20;
      }
    </style>
  </defs>
  <g id="Layer_1-2" data-name="Layer 1">
    <g>
      <path class="cls-1" d="M28.87,35.73c.19-2.03,2.13-4.33,4.35-3.4.57.24,1.04.67,1.43,1.15.23.29.43.61.6.93.05.1.47,1.44.5,1.45-.14-.07.21-1.17-.01-.67-.08.19-.07.45-.12.65-.08.32-.17.64-.29.95-.28.73-.66,1.42-1.12,2.05-1.84,2.51-4.98,4.22-8.13,4.07s-5.69-2.11-7.21-4.68c-.8-1.34-1.32-2.85-1.55-4.39-.02-.15,0-.37-.06-.5-.18-.44-.02.49-.05.61.12-.44.08-.99.17-1.45.14-.77.36-1.52.67-2.24,1.32-3.09,4.04-5.43,7.11-6.69,6.41-2.65,13.51-.59,18.08,4.47,2.24,2.48,3.85,5.54,4.63,8.79.18.77.32,1.55.41,2.34.03.28.11,1.89.09.75s-.03,0-.04.21c-.03.31-.06.61-.1.91-.23,1.68-.7,3.33-1.36,4.89-2.69,6.36-8.53,11.26-15.15,13.11-12.99,3.64-27.72-5.5-30.82-18.51-.19-.81-.34-1.64-.44-2.47-.08-.61-.13-1.22-.16-1.84,0,.08-.02.63,0,.11.02-.4.05-.8.08-1.21.17-1.88.54-3.74,1.08-5.54,1.12-3.72,2.95-7.21,5.3-10.3,4.84-6.35,11.86-10.71,19.3-13.38,7.92-2.85,17.35-4.77,25.61-2.41,7.29,2.08,13.15,7.33,17.85,13.09,5.03,6.16,8.85,13.18,13.51,19.61s10.62,12.2,18.11,15.82c7.51,3.63,15.78,5.59,23.91,7.3s17.04,3.04,25.65,3.89c17.5,1.72,35.14,1.74,52.68.68,17.56-1.06,35.04-3.23,52.39-6.11,4.07-.68,8.14-1.4,12.2-2.15.17-.03-.13-2.48,0-2.5-18.16,3.37-36.46,6.03-54.87,7.56-18.68,1.55-37.5,1.97-56.2.56-9.14-.69-18.25-1.82-27.26-3.51-8.64-1.62-17.45-3.52-25.59-6.9-4.05-1.69-7.94-3.81-11.36-6.57s-6.17-5.9-8.73-9.3c-5.08-6.77-9.08-14.3-14.43-20.86-5.01-6.14-11.36-11.69-19.29-13.45-4.78-1.06-9.74-.68-14.52.2-4.22.78-8.38,1.95-12.33,3.62-7.74,3.26-14.72,8.52-18.98,15.87C.76,26.58-.55,34.04.52,41.19c2.12,14.15,17.97,24.42,31.72,20.2,6.98-2.14,13.03-7.7,15.25-14.72,1.91-6.04,1.09-13.38-2.38-18.68-3.94-6.02-11.09-9.53-18.22-7.52-3.4.96-6.54,3.08-8.31,6.19-1.46,2.56-1.52,5.44-1.4,8.31.27,6.54,6.15,12.62,12.89,9.67,2.97-1.3,5.47-4.11,5.72-7.43.19-2.51.26-5.91-2.34-7.27-2.26-1.18-4.38,1.17-4.58,3.3-.08.83.08,1.68,0,2.5h0Z"/>
      <path class="cls-1" d="M257.62,26.94c17.13.58,34.29.32,51.4-.77v-2.5c-10.69,21.7-20.1,44.03-28.15,66.84-2.26,6.41-4.41,12.86-6.46,19.35-.24.76.24,1.75,0,2.5,7.28-23.07,15.93-45.71,25.89-67.75,2.8-6.19,5.71-12.34,8.71-18.44.11-.23-.07-2.5,0-2.5-17.11,1.09-34.26,1.35-51.4.77,0,0-.05,2.5,0,2.5h0Z"/>
      <path class="cls-1" d="M274.41,110.43c.03-3.06-.12-6.01-.94-8.99-.97-3.51-2.53-6.83-4.09-10.11s-3.29-6.62-4.27-10.16c-.27-.95-.47-1.93-.59-2.91-.05-.36-.08-.73-.09-1.1.02.69.05.75.08.18.09-.37.11-.76.19-1.13.35-1.62,1.03-3.09,2.12-4.34.14-.16.01-1.03.01-1.25s-.16-1.09-.01-1.25c-2.14,2.42-2.42,5.48-2.42,8.57,0,3.62.91,6.89,2.34,10.21,1.51,3.5,3.3,6.88,4.79,10.39.72,1.69,1.37,3.42,1.88,5.19.27.94.49,1.9.66,2.86.07.41.13.83.18,1.24.06.48.12,2.74.14.82,0,.59-.02,1.18,0,1.77,0,.36.01.48.02,0h0Z"/>
      <path class="cls-1" d="M266.77,71.96c2.37-2.62,4.29-5.88,4.42-9.49.1-2.87-.02-5.6-1.76-8.02-1.96-2.71-4.96-4.44-7.64-6.34-3.35-2.38-6.37-5.19-9.01-8.34.12.15-.01,1.04-.01,1.25,0,.24-.15,1.06.01,1.25,2.22,2.64,4.69,5.05,7.42,7.16,2.39,1.85,5.05,3.35,7.29,5.39,1.02.93,1.94,1.97,2.61,3.18.32.59.59,1.21.77,1.86.11.37.14.76.24,1.13.06.58.07.5.03-.22l-.05.38c-.4,1.56-.75,2.99-1.52,4.42s-1.72,2.69-2.8,3.88c-.14.16-.01,1.04-.01,1.25s.15,1.09.01,1.25h0Z"/>
      <path class="cls-1" d="M257.73,24.46l-12.17-1.56c.15.02-.2,2.33,0,2.5,2.7,2.31,3.04,5.98,3.27,9.29.1,1.43.21,2.73.81,4.05.68,1.49,1.96,2.52,3.17,3.58-.11-.09.01-1.08.01-1.25,0-.19.14-1.12-.01-1.25-1.16-1.02-2.44-2.02-3.11-3.44-.72-1.54-.79-3.06-.9-4.73-.23-3.15-.68-6.57-3.23-8.75v2.5l12.17,1.56c-.09-.01.12-2.48,0-2.5h0Z"/>
    </g>
  </g>
</svg>