<?xml version="1.0" encoding="UTF-8"?>
<svg id="Layer_2" data-name="Layer 2" xmlns="http://www.w3.org/2000/svg" viewBox="0 0 302.79 77.21">
  <defs>
    <style>
      .cls-1 {
        fill: #010101;
      }

      .cls-2 {
        fill: #231f20;
      }
    </style>
  </defs>
  <g id="Layer_1-2" data-name="Layer 1">
    <g>
      <path class="cls-2" d="M274.65,34.61l-3.38.27-1.56.12c-.55.04-1.61-.07-2.08.16-.42.21-.05.12-.33.35-.1.08-.02.97-.06-.1-.04-.98.07.13.13.37.17.74.45,1.46.82,2.12,1.44,2.58,4.18,4.48,7.1,4.92,2.92.44,5.81-.81,7.73-3.05.96-1.11,1.67-2.42,2.14-3.81.21-.62.37-1.27.48-1.92.06-.34.14-2.1.14-.72,0,1.27-.08-.36-.14-.72-1.11-6.46-7.83-10.32-14.01-10.24-6.49.09-12.1,4.48-14.93,10.13-.73,1.45-1.28,2.99-1.63,4.58-.16.7-.28,1.41-.35,2.13-.03.28-.04.57-.07.85-.1,1.03.02-.51-.01-.61.15.44.08,1.1.15,1.58.45,3.26,1.78,6.36,3.69,9.03,3.84,5.35,10.03,9.05,16.6,9.69,12.61,1.22,25.49-8.45,27.38-21.06.06-.41.11-.82.15-1.23.04-.41.04-.8.09-1.19,0,.08.03.67,0,.15-.06-1.08-.16-2.16-.33-3.23-.29-1.77-.76-3.51-1.37-5.2-1.26-3.47-3.13-6.71-5.46-9.57-4.78-5.85-11.44-9.91-18.48-12.46-7.46-2.7-16.19-4.54-24.07-2.87-7.15,1.51-13.08,6.16-17.84,11.52-10.02,11.3-15.44,26.56-28.67,34.86-6.8,4.27-14.62,6.59-22.37,8.45-8.51,2.04-17.16,3.44-25.87,4.29-17.48,1.7-35.1,1.18-52.56-.51-17.67-1.71-35.19-4.62-52.65-7.78-4.27-.77-8.53-1.56-12.79-2.35-.17-.03.13-2.48,0-2.5,18.5,3.44,37.03,6.83,55.72,9.08,18.6,2.24,37.4,3.35,56.12,2.08,9.21-.63,18.38-1.84,27.42-3.75,8.44-1.79,17.06-3.96,24.67-8.14s12.73-10.12,17.41-16.94c4.68-6.82,8.4-13.49,13.7-19.43,5.3-5.94,11.76-10.64,19.64-11.7,4.49-.6,9.05-.1,13.46.79,3.93.79,7.8,1.94,11.49,3.51,7.34,3.14,13.99,8.08,18.23,14.93,3.76,6.07,5.14,13,4.56,20.06-1.12,13.65-14.92,24.47-28.46,22.6-6.97-.96-13.43-5.35-16.93-11.46-3.01-5.26-3.58-12.26-1.66-18.01,2.11-6.35,7.57-11.85,14.4-12.69,6.83-.84,14.18,2.93,15.58,9.8,1.08,5.3-.2,12.12-5.44,14.76-5.77,2.91-12.89-1.98-12.97-8.21,0-.64-.33-3.16.19-3.66.21-.2,1.56-.12,1.82-.14l1.82-.14,3.64-.29s.08,2.49,0,2.5Z"/>
      <path class="cls-2" d="M42.03,28.64c-.55,14.32-2.58,28.52-3.98,42.77-.16,1.63-.31,3.25-.45,4.88l-.04.46c.04.58-.04.61-.23.1-.25-.26-.42-.76-.6-1.07-.41-.71-.83-1.41-1.26-2.1-1.66-2.65-3.5-5.17-5.48-7.58-3.95-4.8-8.44-9.14-13.16-13.18C11.44,48.3,5.75,44.04.06,39.81c-.12-.09-.03-2.49,0-2.5,13.98-4.29,27.96-8.58,41.94-12.87-.22.07.25,2.42,0,2.5C28.02,31.23,14.04,35.52.06,39.81v-2.5c10,7.44,20.11,14.99,28.35,24.43,1.96,2.25,3.81,4.6,5.5,7.06.85,1.23,1.65,2.49,2.41,3.78.29.49.66,1.63,1.11,1.96l.1.18c.03-.31.05-.62.08-.92.05-.62.11-1.24.16-1.85.65-7.09,1.49-14.16,2.26-21.23.89-8.14,1.69-16.29,2-24.47-.02.6.04,1.65,0,2.41v-.02Z"/>
      <path class="cls-1" d="M119.64,57.71c-.1,0-.15-.1-.15-.3,0-.2.05-.3.15-.3,1,0,1.73-.07,2.2-.23.47-.2.79-.53.96-.99.2-.46.31-1.2.32-2.2l.1-11.25c0-.87-.07-1.47-.23-1.8-.16-.37-.48-.6-.94-.71-.47-.14-1.28-.21-2.45-.22-.1,0-.15-.1-.15-.3,0-.23.05-.35.15-.35,1.37.01,2.28-.13,2.75-.43.5-.33.77-.93.82-1.79.21-5.4,1.23-9.31,3.05-11.72,1.85-2.42,4.55-3.61,8.08-3.58,1.7.01,3.08.29,4.14.84,1.1.51,1.64,1.13,1.63,1.86,0,.5-.19.9-.56,1.2-.34.26-.74.39-1.2.39-.4,0-.75-.11-1.05-.31-.26-.2-.56-.54-.89-1.01-.53-.7-1.09-1.23-1.69-1.56-.56-.37-1.28-.56-2.15-.57-1.93-.02-3.48,1.09-4.63,3.31-1.15,2.22-1.75,5.6-1.79,10.14l-.15,17.9c0,1.03.1,1.78.33,2.25.23.47.68.79,1.34.96.67.17,1.73.26,3.2.28.1,0,.15.1.15.3,0,.2-.05.3-.15.3l-3.2-.08c-.7-.04-1.77-.07-3.2-.08l-2.8.03c-.47.03-1.13.04-2,.03ZM132.33,40.97c-2.13-.55-4.63-.84-7.49-.86v-1.1c2.04.02,4.59-.13,7.66-.43.1,0,.18.12.25.35.06.23.1.52.09.85,0,.27-.05.55-.16.85-.1.27-.22.38-.35.35Z"/>
      <path class="cls-1" d="M181.54,52.95c-.07.01-.12-.08-.15-.28-.03-.2-.02-.3.05-.31.89-.15,1.53-.35,1.93-.59.43-.28.68-.66.77-1.15.08-.49.04-1.23-.13-2.21l-1.59-9.21c-.2-1.18-.48-2.01-.84-2.49-.32-.49-.78-.68-1.37-.58-.59.1-1.29.46-2.1,1.07h-.05c-.13.03-.24-.03-.34-.19-.09-.15-.1-.27-.01-.35l5.9-4.06.19-.08c.07-.01.16.02.27.11.11.05.17.12.19.22.04.23.14.89.29,1.98.15,1.09.36,2.37.61,3.85l1.6,9.26c.17.99.38,1.69.62,2.13.24.43.6.71,1.06.83.46.09,1.13.06,2.01-.09.1-.02.16.07.2.27.03.2,0,.3-.1.32-.76.13-1.37.22-1.83.26l-2.67.41-2.65.51c-.45.11-1.08.24-1.86.37ZM181.33,27.01c-.66.11-1.21.02-1.67-.27-.46-.29-.74-.77-.85-1.43-.11-.66,0-1.2.33-1.63.33-.43.83-.7,1.48-.81.66-.11,1.2-.02,1.62.28.42.3.69.78.81,1.43.11.66.02,1.2-.28,1.62-.3.42-.78.69-1.43.81Z"/>
      <path class="cls-1" d="M164.49,55.32c-.1.01-.16-.08-.19-.28-.03-.2.01-.3.11-.32.89-.12,1.54-.29,1.95-.51.4-.26.66-.63.76-1.11.1-.52.09-1.26-.04-2.21l-3.4-25.63c-.16-1.19-.39-2.03-.69-2.53-.3-.5-.75-.71-1.34-.63-.5.07-1.22.4-2.19,1h-.1c-.1.03-.19-.05-.28-.2-.05-.16-.04-.26.06-.31l5.94-3.87c.06-.04.14-.07.24-.08.1-.01.2.02.32.11.11.05.17.13.18.23l4.18,31.52c.13.96.29,1.66.48,2.11.23.44.57.73,1.02.87.46.14,1.13.15,2.02.03.1-.01.16.08.19.28.03.2-.01.3-.11.32-.73.1-1.32.16-1.79.19l-2.78.32-2.67.4c-.46.09-1.08.19-1.88.3Z"/>
      <path class="cls-1" d="M69.13,53.52c-1.83-.63-3.3-1.62-4.42-2.99-1.08-1.39-1.73-2.97-1.97-4.74-.23-1.8-.04-3.61.58-5.4.7-2.05,1.78-3.62,3.25-4.7,1.51-1.11,3.15-1.74,4.93-1.91,1.83-.19,3.54,0,5.15.54,1.86.64,3.33,1.65,4.4,3.04s1.72,2.96,1.92,4.73c.25,1.74.09,3.45-.48,5.12-.67,1.96-1.71,3.52-3.13,4.69-1.41,1.14-3.03,1.85-4.85,2.15-1.78.27-3.57.1-5.37-.51ZM70.81,53.09c1.73.59,3.29.44,4.65-.47,1.37-.91,2.49-2.64,3.36-5.19.67-1.96.94-3.82.8-5.59-.1-1.76-.58-3.26-1.42-4.5-.83-1.27-1.98-2.15-3.43-2.65-1.7-.58-3.24-.42-4.6.49-1.34.92-2.4,2.53-3.18,4.83-.66,1.92-.95,3.8-.86,5.62.08,1.82.53,3.4,1.34,4.74.81,1.33,1.93,2.24,3.35,2.73Z"/>
      <path class="cls-1" d="M44.71,48.71c-.1-.01-.14-.12-.11-.32.03-.2.09-.29.19-.28.89.12,1.57.11,2.02-.04.45-.11.79-.38,1.02-.82.23-.44.4-1.16.53-2.15l3.07-23.3c.16-1.19.14-2.05-.06-2.58-.19-.56-.62-.89-1.28-.98-.73-.1-1.63.02-2.72.35l-.11.04c-.13-.02-.2-.11-.22-.28-.04-.17-.01-.29.1-.34l5.85-1.9c.07-.02.19-.03.35,0,.46.06.79.51.98,1.34.23.8.25,1.9.07,3.29l-3.26,24.74c-.13.99-.11,1.73.06,2.23.2.5.62.87,1.26,1.12.67.29,1.73.53,3.18.72.07,0,.09.11.06.31-.03.2-.07.29-.14.28-1.12-.15-2.01-.28-2.67-.4l-3.61-.53-2.73-.31c-.47-.03-1.08-.09-1.84-.19ZM57.57,37.19c-1.29-.17-2.39-.48-3.31-.94-.92-.42-1.91-1.11-2.96-2.05l1.05-2.64c.86,1.39,1.79,2.49,2.79,3.29,1.04.78,2.39,1.27,4.04,1.49,1.75.23,3.29-.34,4.61-1.71,1.33-1.41,2.17-3.48,2.53-6.22.37-2.78.04-5-.99-6.69-1.02-1.71-2.47-2.7-4.35-2.94-1.32-.17-2.57.01-3.76.56-1.15.55-2.44,1.43-3.87,2.62l-.34-.45c1.94-1.69,3.74-2.89,5.41-3.57,1.68-.72,3.31-.98,4.89-.77,1.36.18,2.56.71,3.62,1.59,1.06.88,1.85,2.06,2.36,3.54.51,1.48.65,3.14.4,5-.33,2.48-1.16,4.5-2.51,6.07-1.35,1.54-2.9,2.61-4.66,3.22-1.73.61-3.39.82-4.97.61Z"/>
      <path class="cls-1" d="M89.81,41.25c2.06-1.93,3.62-3.2,4.69-3.82,1.07-.65,2.02-.92,2.84-.81.73.1,1.39.4,1.99.89.6.49.86,1.02.78,1.58-.06.43-.26.77-.6,1.03-.34.25-.76.35-1.25.28-.3-.04-.55-.13-.77-.26-.18-.16-.4-.38-.66-.65-.26-.31-.51-.54-.76-.71-.25-.17-.55-.28-.91-.33-.49-.07-1.07.1-1.74.51-.66.41-1.83,1.37-3.49,2.88l-.12-.57ZM83.16,54.54c-.1-.01-.13-.12-.11-.32.03-.2.09-.29.19-.28.89.13,1.56.14,2.02.04.46-.14.79-.43.98-.87.23-.44.42-1.15.56-2.14l1.4-9.8c.16-1.12.14-1.95-.05-2.48-.19-.53-.6-.84-1.23-.93-.53-.08-1.45.04-2.78.36h-.1c-.13-.03-.22-.11-.27-.25,0-.17.06-.28.2-.33l6.13-1.9c.07-.02.17-.03.3,0,.3.04.56.47.78,1.27.22.81.25,1.8.08,2.99l-1.64,11.48c-.14.99-.13,1.73.03,2.23.2.5.61.9,1.24,1.19.64.26,1.65.49,3.03.69.13.02.18.13.16.33-.03.2-.11.29-.24.27-1.06-.15-1.89-.29-2.52-.41l-3.66-.57-2.73-.34c-.43-.03-1.03-.1-1.79-.21Z"/>
      <path class="cls-1" d="M106.57,57.44c-1.39-.2-2.48-.67-3.28-1.42-.8-.75-1.1-1.86-.9-3.31l1.64-11.64c.12-.86.14-1.48.06-1.86-.05-.38-.23-.64-.55-.78-.31-.18-.86-.32-1.66-.44-.13-.02-.18-.13-.16-.32.03-.23.11-.34.25-.32,1.32.15,2.45-.04,3.36-.59.92-.58,1.53-1.42,1.82-2.52.01-.1.15-.13.42-.09.23.03.34.1.33.2l-2.4,17.08c-.38,2.67.74,4.19,3.35,4.56,1.52.21,2.9-.06,4.16-.83l.11-.04c.13.02.22.12.26.29.05.14.02.24-.09.29-1.36.79-2.56,1.31-3.6,1.56-1.01.26-2.05.32-3.1.17ZM113.8,40.84c-2.04-.83-4.51-1.44-7.41-1.85l.15-1.09c2.08.29,4.68.49,7.79.59.07,0,.11.15.14.42.07.24.08.52.04.81-.04.26-.14.54-.32.81-.14.25-.27.35-.4.3Z"/>
      <path class="cls-1" d="M143.93,57.37c-1.91-.28-3.54-.99-4.89-2.13-1.31-1.17-2.25-2.6-2.8-4.3-.55-1.73-.69-3.54-.42-5.42.31-2.14,1.09-3.88,2.33-5.22,1.28-1.36,2.78-2.29,4.5-2.78,1.76-.52,3.48-.65,5.16-.4,1.95.29,3.57,1.01,4.88,2.18s2.23,2.6,2.76,4.3c.56,1.67.72,3.37.46,5.12-.3,2.04-1.04,3.77-2.23,5.18-1.18,1.38-2.64,2.38-4.38,3-1.7.59-3.5.75-5.38.47ZM145.5,56.65c1.81.27,3.31-.17,4.49-1.31,1.18-1.14,1.96-3.05,2.36-5.72.3-2.04.22-3.93-.23-5.64-.42-1.71-1.16-3.1-2.22-4.17-1.05-1.1-2.34-1.76-3.85-1.98-1.78-.26-3.26.18-4.44,1.32-1.15,1.15-1.89,2.92-2.25,5.33-.3,2.01-.24,3.91.18,5.69.41,1.78,1.14,3.25,2.18,4.41,1.04,1.16,2.31,1.85,3.79,2.07Z"/>
      <path class="cls-1" d="M201.57,45.34c-1.93-.07-3.63-.59-5.1-1.58-1.43-1.02-2.52-2.34-3.26-3.97-.74-1.66-1.08-3.44-1.02-5.34.08-2.17.65-3.98,1.74-5.44,1.12-1.5,2.51-2.58,4.17-3.26,1.69-.71,3.39-1.03,5.09-.97,1.97.07,3.66.61,5.1,1.63s2.5,2.34,3.21,3.96c.75,1.59,1.09,3.27,1.03,5.04-.07,2.07-.62,3.86-1.64,5.4-1.02,1.5-2.36,2.65-4.02,3.46-1.63.78-3.39,1.13-5.29,1.07ZM203.06,44.44c1.83.06,3.27-.54,4.31-1.8,1.04-1.26,1.61-3.25,1.71-5.94.07-2.07-.21-3.93-.86-5.58-.61-1.66-1.5-2.95-2.67-3.89-1.17-.97-2.52-1.49-4.05-1.54-1.8-.06-3.22.54-4.27,1.8-1.01,1.27-1.56,3.11-1.64,5.55-.07,2.03.2,3.91.81,5.63.61,1.72,1.49,3.1,2.66,4.14,1.16,1.04,2.5,1.59,4,1.64Z"/>
    </g>
  </g>
</svg>