<?xml version="1.0" encoding="UTF-8"?>
<svg id="Layer_2" data-name="Layer 2" xmlns="http://www.w3.org/2000/svg" viewBox="0 0 302.79 77.21">
  <defs>
    <style>
      .cls-1 {
        fill: #010101;
      }

      .cls-2 {
        fill: #231f20;
      }
    </style>
  </defs>
  <g id="Layer_1-2" data-name="Layer 1">
    <g>
      <path class="cls-1" d="M64.67,51.35c-1.35-.37-2.38-.97-3.08-1.82-.7-.85-.86-1.98-.48-3.39l3.07-11.34c.23-.84.32-1.45.29-1.84,0-.38-.15-.66-.44-.85-.29-.22-.82-.43-1.59-.64-.13-.03-.17-.15-.11-.34.06-.23.16-.32.28-.29,1.3.32,2.43.26,3.41-.17.99-.46,1.69-1.22,2.12-2.28.03-.1.17-.11.43-.04.23.06.32.14.3.24l-4.5,16.65c-.71,2.61.21,4.25,2.76,4.94,1.48.4,2.89.3,4.23-.31l.11-.02c.13.03.2.14.22.32.03.15-.01.24-.13.28-1.44.61-2.7.98-3.77,1.1-1.04.13-2.07.06-3.1-.22ZM73.91,35.77c-1.92-1.07-4.3-1.99-7.13-2.76l.29-1.06c2.03.55,4.58,1.07,7.66,1.55.06.02.09.16.09.44.04.25.01.52-.06.81-.07.26-.21.51-.42.77-.17.23-.31.31-.43.25Z"/>
      <path class="cls-1" d="M88.66,55.16c-1.93-.15-3.54-.72-4.83-1.72-1.3-1-2.25-2.26-2.87-3.78-.59-1.52-.82-3.1-.69-4.77.15-1.96.75-3.72,1.8-5.28,1.06-1.59,2.42-2.79,4.08-3.6,1.7-.84,3.52-1.19,5.44-1.04,1.86.14,3.25.75,4.17,1.82s1.31,2.51,1.18,4.3c-.04.47-.11.79-.23.99-.08.19-.24.28-.47.27l-2.79-.21.12-.89c.13-1.66-.14-2.95-.81-3.87-.67-.92-1.63-1.43-2.89-1.52-1.76-.13-3.19.46-4.3,1.78-1.07,1.32-1.7,3.2-1.88,5.62-.22,2.89.29,5.29,1.51,7.18,1.23,1.9,3.07,2.94,5.53,3.13,1,.08,1.85,0,2.57-.21.75-.21,1.6-.56,2.54-1.06h.05c.1.01.18.08.23.22.09.11.1.21.03.3-2.41,1.76-4.91,2.54-7.5,2.34ZM82.93,40.73l11.33.66-.06.8-11.27-.8v-.65Z"/>
      <path class="cls-1" d="M127.18,57.78c-.1,0-.14-.11-.13-.31s.07-.3.16-.29c.9.05,1.57,0,2.01-.15.44-.18.76-.5.95-.95.19-.49.31-1.22.36-2.18l.4-7.94c.1-1.96-.18-3.45-.83-4.45-.65-1-1.71-1.54-3.17-1.61-1.16-.06-2.38.28-3.66,1.02-1.24.71-2.32,1.7-3.26,2.99l-.17-.61c1.5-1.89,2.95-3.26,4.36-4.09,1.45-.86,2.93-1.25,4.47-1.18,1.76.09,3.09.66,3.97,1.7.88,1.05,1.27,2.58,1.17,4.61l-.49,9.69c-.05,1,0,1.74.14,2.21.14.47.43.82.85,1.04.42.19,1.09.31,1.98.35.1,0,.14.11.13.31s-.06.3-.16.29c-.77-.04-1.38-.09-1.85-.14l-2.69-.19-2.7-.09c-.47,0-1.08,0-1.85-.04ZM114.3,57.13c-.1,0-.15-.11-.14-.31.01-.2.07-.3.17-.29.9.05,1.57,0,2.01-.15.44-.18.74-.5.9-.96.19-.46.31-1.19.36-2.18l.4-7.94c.1-1.96-.18-3.45-.83-4.45-.65-1-1.69-1.54-3.12-1.61-1.2-.06-2.42.28-3.66,1.02-1.24.71-2.32,1.7-3.25,2.99l-.17-.61c1.5-1.89,2.95-3.26,4.36-4.09,1.45-.86,2.92-1.25,4.42-1.18,1.76.09,3.09.66,3.97,1.7.92,1.05,1.32,2.55,1.22,4.52l-.49,9.79c-.05,1,0,1.74.14,2.21.14.47.43.82.85,1.04.42.19,1.09.31,1.98.35.1,0,.15.11.14.31-.01.2-.07.3-.17.29-.77-.04-1.38-.09-1.85-.14l-2.69-.19-2.75-.09c-.43.01-1.04,0-1.8-.04ZM101.47,56.48c-.1,0-.15-.11-.14-.31s.07-.3.17-.29c.9.05,1.57,0,2.01-.15.44-.18.74-.5.9-.96.19-.46.31-1.19.36-2.18l.5-9.89c.06-1.13-.03-1.95-.28-2.47-.24-.51-.68-.79-1.31-.82-.53-.03-1.44.18-2.73.61h-.1c-.13-.01-.23-.08-.29-.22-.03-.17.03-.28.17-.34l5.93-2.45c.07-.03.17-.04.3-.03.3.02.6.41.89,1.2.29.78.41,1.77.35,2.97l-.58,11.59c-.05,1-.02,1.73.09,2.21.14.47.43.82.85,1.04.42.19,1.09.31,1.99.35.1,0,.14.11.13.31-.01.2-.07.3-.17.29-.76-.04-1.36-.09-1.79-.14l-2.69-.19-2.75-.09c-.43.01-1.03,0-1.8-.04Z"/>
      <path class="cls-1" d="M153.5,58.73c-.13.07-.26.11-.4.11-.5.02-.95-.35-1.34-1.11-.39-.75-.61-1.76-.65-3.03l-.3-9.45c-.12-3.73-1.23-5.56-3.33-5.5-1.13.04-1.99.45-2.56,1.23-.54.75-.9,1.61-1.07,2.59-.11.64-.3,1.14-.55,1.52-.22.37-.65.57-1.28.59-.53.02-.95-.12-1.26-.41-.28-.29-.42-.64-.43-1.04-.02-.8.47-1.62,1.47-2.45,1.01-.83,2.22-1.54,3.63-2.12,1.42-.58,2.69-.89,3.82-.92,1.37-.04,2.41.36,3.14,1.2s1.12,2.08,1.17,3.71l.3,9.35c.04,1.17.21,2.01.53,2.53.32.52.81.77,1.47.75.67-.02,1.49-.26,2.48-.73h.1c.13,0,.22.07.26.24.04.13,0,.23-.14.3l-5.07,2.61ZM144.51,59.06c-1.23.04-2.21-.25-2.93-.86-.69-.65-1.05-1.47-1.08-2.47-.03-1,.34-1.88,1.12-2.64.78-.76,2.07-1.5,3.88-2.23l5.93-2.44.17.64-5.23,2.22c-.92.4-1.59.85-2.01,1.36-.39.48-.57,1.05-.55,1.72.03.8.3,1.47.81,2.03.55.52,1.24.76,2.07.73.67-.02,1.46-.31,2.37-.88l3.09-2,.12.65-3.62,2.52c-.81.56-1.54.97-2.16,1.22-.63.25-1.29.39-1.99.41Z"/>
      <path class="cls-2" d="M274.65,34.61l-3.38.27-1.56.12c-.55.04-1.61-.07-2.08.16-.42.21-.05.12-.33.35-.1.08-.02.97-.06-.1-.04-.98.07.13.13.37.17.74.45,1.46.82,2.12,1.44,2.58,4.18,4.48,7.1,4.92,2.92.44,5.81-.81,7.73-3.05.96-1.11,1.67-2.42,2.14-3.81.21-.62.37-1.27.48-1.92.06-.34.14-2.1.14-.72,0,1.27-.08-.36-.14-.72-1.11-6.46-7.83-10.32-14.01-10.24-6.49.09-12.1,4.48-14.93,10.13-.73,1.45-1.28,2.99-1.63,4.58-.16.7-.28,1.41-.35,2.13-.03.28-.04.57-.07.85-.1,1.03.02-.51-.01-.61.15.44.08,1.1.15,1.58.45,3.26,1.78,6.36,3.69,9.03,3.84,5.35,10.03,9.05,16.6,9.69,12.61,1.22,25.49-8.45,27.38-21.06.06-.41.11-.82.15-1.23.04-.41.04-.8.09-1.19,0,.08.03.67,0,.15-.06-1.08-.16-2.16-.33-3.23-.29-1.77-.76-3.51-1.37-5.2-1.26-3.47-3.13-6.71-5.46-9.57-4.78-5.85-11.44-9.91-18.48-12.46-7.46-2.7-16.19-4.54-24.07-2.87-7.15,1.51-13.08,6.16-17.84,11.52-10.02,11.3-15.44,26.56-28.67,34.86-6.8,4.27-14.62,6.59-22.37,8.45-8.51,2.04-17.16,3.44-25.87,4.29-17.48,1.7-35.1,1.18-52.56-.51-17.67-1.71-35.19-4.62-52.65-7.78-4.27-.77-8.53-1.56-12.79-2.35-.17-.03.13-2.48,0-2.5,18.5,3.44,37.03,6.83,55.72,9.08,18.6,2.24,37.4,3.35,56.12,2.08,9.21-.63,18.38-1.84,27.42-3.75,8.44-1.79,17.06-3.96,24.67-8.14s12.73-10.12,17.41-16.94c4.68-6.82,8.4-13.49,13.7-19.43,5.3-5.94,11.76-10.64,19.64-11.7,4.49-.6,9.05-.1,13.46.79,3.93.79,7.8,1.94,11.49,3.51,7.34,3.14,13.99,8.08,18.23,14.93,3.76,6.07,5.14,13,4.56,20.06-1.12,13.65-14.92,24.47-28.46,22.6-6.97-.96-13.43-5.35-16.93-11.46-3.01-5.26-3.58-12.26-1.66-18.01,2.11-6.35,7.57-11.85,14.4-12.69,6.83-.84,14.18,2.93,15.58,9.8,1.08,5.3-.2,12.12-5.44,14.76-5.77,2.91-12.89-1.98-12.97-8.21,0-.64-.33-3.16.19-3.66.21-.2,1.56-.12,1.82-.14l1.82-.14,3.64-.29s.08,2.49,0,2.5Z"/>
      <path class="cls-2" d="M42.03,28.64c-.55,14.32-2.58,28.52-3.98,42.77-.16,1.63-.31,3.25-.45,4.88l-.04.46c.04.58-.04.61-.23.1-.25-.26-.42-.76-.6-1.07-.41-.71-.83-1.41-1.26-2.1-1.66-2.65-3.5-5.17-5.48-7.58-3.95-4.8-8.44-9.14-13.16-13.18C11.44,48.3,5.75,44.04.06,39.81c-.12-.09-.03-2.49,0-2.5,13.98-4.29,27.96-8.58,41.94-12.87-.22.07.25,2.42,0,2.5C28.02,31.23,14.04,35.52.06,39.81v-2.5c10,7.44,20.11,14.99,28.35,24.43,1.96,2.25,3.81,4.6,5.5,7.06.85,1.23,1.65,2.49,2.41,3.78.29.49.66,1.63,1.11,1.96l.1.18c.03-.31.05-.62.08-.92.05-.62.11-1.24.16-1.85.65-7.09,1.49-14.16,2.26-21.23.89-8.14,1.69-16.29,2-24.47-.02.6.04,1.65,0,2.41v-.02Z"/>
      <path class="cls-1" d="M161.61,8.12c-.16-1.4-.45,2.33.05,1.12.08-.19.11-.39.2-.58.15-.32.36-.6.61-.85.57-.57,1.34-.91,2.1-1.16,2.22-.72,4.67-.74,6.99-.75,5.32,0,10.83.79,16.1-.16v-2.5c-4.02,7.02-7.58,14.29-10.66,21.77-.3.72.3,1.8,0,2.5,1.3-3.02,5.66-4.33,8.63-4.81,1.89-.3,3.77-.02,5.19,1.33,1.29,1.22,2.12,2.95,2.84,4.55.79,1.76,1.39,3.6,1.75,5.5.09.47.16.94.22,1.42.02.2.05.4.06.61.01.14.12,1.41.05.37s-.1.84-.14,1.15c-.07.53-.18,1.05-.31,1.57-.91,3.58-3.24,6.52-6.23,8.61-3.33,2.34-7.26,3.57-11.2,4.44-3.5.78-7.77,2.11-10.84-.46-1.11-.93-1.94-2.2-2.37-3.59-.09-.3-.13-.61-.22-.9-.27-.88.12.34-.05.35.01,0,.07-.42.09-.45.29-.83.53-1.58,1.05-2.31,1.92-2.72,5.64-4.18,8.91-3.72,1.69.24,3.37,1.03,4.25,2.55.24.41.29.92.51,1.32.3.56-.16-.57.05-.55.02,0-.2.82-.22.87-.29.87-.79,1.66-1.46,2.29-1.47,1.39-3.62,2.02-5.62,1.82-.83-.09-1.64-.33-2.24-.93-.27-.27-.48-.58-.65-.92-.28-.58-.34-1.88-.36.07v.62c.13-1.74,1.29-2.86,3-3.05,1.26-.14,2.93.22,3.08,1.71v-2.46c-.01.36-.08.62-.2.95-.26.75.26,1.76,0,2.5.26-.74.21-1.47.21-2.24,0-.64.11-1.44-.24-2.01-.78-1.27-2.93-1.15-4.1-.62-1.64.74-1.77,2.35-1.78,3.93,0,1.74,0,3.72,1.84,4.6,2.2,1.05,5.35.15,7.04-1.46s1.76-3.53,1.75-5.64-.46-3.89-2.37-5.02-4.53-1.12-6.66-.44c-2.27.72-4.4,2.23-5.41,4.44-.73,1.6-.63,3.49-.56,5.21.08,1.93.87,3.79,2.25,5.16,1.79,1.78,4.08,2.14,6.51,1.8,5.58-.78,11.68-2.2,16.29-5.59,4.06-2.98,6.31-7.28,6.39-12.32.09-5.36-.84-11.24-4.34-15.54-2.11-2.59-5.18-2.36-8.1-1.44-2.41.77-5.27,1.72-6.35,4.23v2.5c3.08-7.48,6.64-14.75,10.66-21.77.14-.25-.14-2.47,0-2.5-4.66.84-9.53.27-14.23.18-2.25-.04-4.53-.06-6.77.27-1.5.22-3.29.59-4.34,1.79-1.13,1.28-.88,3.59-.7,5.15-.09-.82.09-1.68,0-2.5h0Z"/>
    </g>
  </g>
</svg>