<?xml version="1.0" encoding="UTF-8"?>
<svg id="Layer_2" data-name="Layer 2" xmlns="http://www.w3.org/2000/svg" xmlns:xlink="http://www.w3.org/1999/xlink" viewBox="0 0 302.79 77.21">
  <defs>
    <style>
      .cls-1 {
        fill: none;
      }

      .cls-2 {
        fill: #010101;
      }

      .cls-3 {
        fill: #231f20;
      }

      .cls-4 {
        clip-path: url(#clippath);
      }
    </style>
    <clipPath id="clippath">
      <rect class="cls-1" x="158.39" y="4.04" width="48.33" height="49.89" transform="translate(-2.28 27.26) rotate(-8.49)"/>
    </clipPath>
  </defs>
  <g id="Layer_1-2" data-name="Layer 1">
    <g>
      <path class="cls-3" d="M274.65,34.61l-3.38.27-1.56.12c-.55.04-1.61-.07-2.08.16-.42.21-.05.12-.33.35-.1.08-.02.97-.06-.1-.04-.98.07.13.13.37.17.74.45,1.46.82,2.12,1.44,2.58,4.18,4.48,7.1,4.92,2.92.44,5.81-.81,7.73-3.05.96-1.11,1.67-2.42,2.14-3.81.21-.62.37-1.27.48-1.92.06-.34.14-2.1.14-.72,0,1.27-.08-.36-.14-.72-1.11-6.46-7.83-10.32-14.01-10.24-6.49.09-12.1,4.48-14.93,10.13-.73,1.45-1.28,2.99-1.63,4.58-.16.7-.28,1.41-.35,2.13-.03.28-.04.57-.07.85-.1,1.03.02-.51-.01-.61.15.44.08,1.1.15,1.58.45,3.26,1.78,6.36,3.69,9.03,3.84,5.35,10.03,9.05,16.6,9.69,12.61,1.22,25.49-8.45,27.38-21.06.06-.41.11-.82.15-1.23.04-.41.04-.8.09-1.19,0,.08.03.67,0,.15-.06-1.08-.16-2.16-.33-3.23-.29-1.77-.76-3.51-1.37-5.2-1.26-3.47-3.13-6.71-5.46-9.57-4.78-5.85-11.44-9.91-18.48-12.46-7.46-2.7-16.19-4.54-24.07-2.87-7.15,1.51-13.08,6.16-17.84,11.52-10.02,11.3-15.44,26.56-28.67,34.86-6.8,4.27-14.62,6.59-22.37,8.45-8.51,2.04-17.16,3.44-25.87,4.29-17.48,1.7-35.1,1.18-52.56-.51-17.67-1.71-35.19-4.62-52.65-7.78-4.27-.77-8.53-1.56-12.79-2.35-.17-.03.13-2.48,0-2.5,18.5,3.44,37.03,6.83,55.72,9.08,18.6,2.24,37.4,3.35,56.12,2.08,9.21-.63,18.38-1.84,27.42-3.75,8.44-1.79,17.06-3.96,24.67-8.14s12.73-10.12,17.41-16.94c4.68-6.82,8.4-13.49,13.7-19.43,5.3-5.94,11.76-10.64,19.64-11.7,4.49-.6,9.05-.1,13.46.79,3.93.79,7.8,1.94,11.49,3.51,7.34,3.14,13.99,8.08,18.23,14.93,3.76,6.07,5.14,13,4.56,20.06-1.12,13.65-14.92,24.47-28.46,22.6-6.97-.96-13.43-5.35-16.93-11.46-3.01-5.26-3.58-12.26-1.66-18.01,2.11-6.35,7.57-11.85,14.4-12.69,6.83-.84,14.18,2.93,15.58,9.8,1.08,5.3-.2,12.12-5.44,14.76-5.77,2.91-12.89-1.98-12.97-8.21,0-.64-.33-3.16.19-3.66.21-.2,1.56-.12,1.82-.14l1.82-.14,3.64-.29s.08,2.49,0,2.5Z"/>
      <path class="cls-3" d="M42.03,28.64c-.55,14.32-2.58,28.52-3.98,42.77-.16,1.63-.31,3.25-.45,4.88l-.04.46c.04.58-.04.61-.23.1-.25-.26-.42-.76-.6-1.07-.41-.71-.83-1.41-1.26-2.1-1.66-2.65-3.5-5.17-5.48-7.58-3.95-4.8-8.44-9.14-13.16-13.18C11.44,48.3,5.75,44.04.06,39.81c-.12-.09-.03-2.49,0-2.5,13.98-4.29,27.96-8.58,41.94-12.87-.22.07.25,2.42,0,2.5C28.02,31.23,14.04,35.52.06,39.81v-2.5c10,7.44,20.11,14.99,28.35,24.43,1.96,2.25,3.81,4.6,5.5,7.06.85,1.23,1.65,2.49,2.41,3.78.29.49.66,1.63,1.11,1.96l.1.18c.03-.31.05-.62.08-.92.05-.62.11-1.24.16-1.85.65-7.09,1.49-14.16,2.26-21.23.89-8.14,1.69-16.29,2-24.47-.02.6.04,1.65,0,2.41v-.02Z"/>
      <path class="cls-2" d="M63.21,50.29c-1.35-.37-2.38-.97-3.08-1.82-.7-.85-.86-1.98-.48-3.39l3.07-11.34c.23-.84.32-1.45.29-1.84,0-.38-.15-.66-.44-.85-.29-.22-.82-.43-1.59-.64-.13-.03-.17-.15-.11-.34.06-.23.16-.32.28-.29,1.3.32,2.43.26,3.41-.17.99-.46,1.69-1.22,2.12-2.28.03-.1.17-.11.43-.04.23.06.32.14.3.24l-4.5,16.65c-.71,2.61.21,4.25,2.76,4.94,1.48.4,2.89.3,4.23-.31l.11-.02c.13.03.2.14.22.32.03.15-.01.24-.13.28-1.44.61-2.7.98-3.77,1.1-1.04.13-2.07.06-3.1-.22ZM72.45,34.71c-1.92-1.07-4.3-1.99-7.13-2.76l.29-1.06c2.03.55,4.58,1.07,7.66,1.55.06.02.09.16.09.44.04.25.01.52-.06.81-.07.26-.21.51-.42.77-.17.23-.31.31-.43.25Z"/>
      <path class="cls-2" d="M87.2,54.1c-1.93-.15-3.54-.72-4.83-1.72-1.3-1-2.25-2.26-2.87-3.78-.59-1.52-.82-3.1-.69-4.77.15-1.96.75-3.72,1.8-5.28,1.06-1.59,2.42-2.79,4.08-3.6,1.7-.84,3.52-1.19,5.44-1.04,1.86.14,3.25.75,4.17,1.82s1.31,2.51,1.18,4.3c-.04.47-.11.79-.23.99-.08.19-.24.28-.47.27l-2.79-.21.12-.89c.13-1.66-.14-2.95-.81-3.87-.67-.92-1.63-1.43-2.89-1.52-1.76-.13-3.19.46-4.3,1.78-1.07,1.32-1.7,3.2-1.88,5.62-.22,2.89.29,5.29,1.51,7.18,1.23,1.9,3.07,2.94,5.53,3.13,1,.08,1.85,0,2.57-.21.75-.21,1.6-.56,2.54-1.06h.05c.1.01.18.08.23.22.09.11.1.21.03.3-2.41,1.76-4.91,2.54-7.5,2.34ZM81.47,39.68l11.33.66-.06.8-11.27-.8v-.65Z"/>
      <path class="cls-2" d="M125.72,56.72c-.1,0-.14-.11-.13-.31s.07-.3.16-.29c.9.05,1.57,0,2.01-.15.44-.18.76-.5.95-.95.19-.49.31-1.22.36-2.18l.4-7.94c.1-1.96-.18-3.45-.83-4.45-.65-1-1.71-1.54-3.17-1.61-1.16-.06-2.38.28-3.66,1.02-1.24.71-2.32,1.7-3.26,2.99l-.17-.61c1.5-1.89,2.95-3.26,4.36-4.09,1.45-.86,2.93-1.25,4.47-1.18,1.76.09,3.09.66,3.97,1.7.88,1.05,1.27,2.58,1.17,4.61l-.49,9.69c-.05,1,0,1.74.14,2.21.14.47.43.82.85,1.04.42.19,1.09.31,1.98.35.1,0,.14.11.13.31s-.06.3-.16.29c-.77-.04-1.38-.09-1.85-.14l-2.69-.19-2.7-.09c-.47,0-1.08,0-1.85-.04ZM112.84,56.07c-.1,0-.15-.11-.14-.31.01-.2.07-.3.17-.29.9.05,1.57,0,2.01-.15.44-.18.74-.5.9-.96.19-.46.31-1.19.36-2.18l.4-7.94c.1-1.96-.18-3.45-.83-4.45-.65-1-1.69-1.54-3.12-1.61-1.2-.06-2.42.28-3.66,1.02-1.24.71-2.32,1.7-3.25,2.99l-.17-.61c1.5-1.89,2.95-3.26,4.36-4.09,1.45-.86,2.92-1.25,4.42-1.18,1.76.09,3.09.66,3.97,1.7.92,1.05,1.32,2.55,1.22,4.52l-.49,9.79c-.05,1,0,1.74.14,2.21.14.47.43.82.85,1.04.42.19,1.09.31,1.98.35.1,0,.15.11.14.31-.01.2-.07.3-.17.29-.77-.04-1.38-.09-1.85-.14l-2.69-.19-2.75-.09c-.43.01-1.04,0-1.8-.04ZM100.01,55.43c-.1,0-.15-.11-.14-.31s.07-.3.17-.29c.9.05,1.57,0,2.01-.15.44-.18.74-.5.9-.96.19-.46.31-1.19.36-2.18l.5-9.89c.06-1.13-.03-1.95-.28-2.47-.24-.51-.68-.79-1.31-.82-.53-.03-1.44.18-2.73.61h-.1c-.13-.01-.23-.08-.29-.22-.03-.17.03-.28.17-.34l5.93-2.45c.07-.03.17-.04.3-.03.3.02.6.41.89,1.2.29.78.41,1.77.35,2.97l-.58,11.59c-.05,1-.02,1.73.09,2.21.14.47.43.82.85,1.04.42.19,1.09.31,1.99.35.1,0,.14.11.13.31-.01.2-.07.3-.17.29-.76-.04-1.36-.09-1.79-.14l-2.69-.19-2.75-.09c-.43.01-1.03,0-1.8-.04Z"/>
      <path class="cls-2" d="M152.04,57.67c-.13.07-.26.11-.4.11-.5.02-.95-.35-1.34-1.11-.39-.75-.61-1.76-.65-3.03l-.3-9.45c-.12-3.73-1.23-5.56-3.33-5.5-1.13.04-1.99.45-2.56,1.23-.54.75-.9,1.61-1.07,2.59-.11.64-.3,1.14-.55,1.52-.22.37-.65.57-1.28.59-.53.02-.95-.12-1.26-.41-.28-.29-.42-.64-.43-1.04-.02-.8.47-1.62,1.47-2.45,1.01-.83,2.22-1.54,3.63-2.12,1.42-.58,2.69-.89,3.82-.92,1.37-.04,2.41.36,3.14,1.2s1.12,2.08,1.17,3.71l.3,9.35c.04,1.17.21,2.01.53,2.53.32.52.81.77,1.47.75.67-.02,1.49-.26,2.48-.73h.1c.13,0,.22.07.26.24.04.13,0,.23-.14.3l-5.07,2.61ZM143.05,58.01c-1.23.04-2.21-.25-2.93-.86-.69-.65-1.05-1.47-1.08-2.47-.03-1,.34-1.88,1.12-2.64.78-.76,2.07-1.5,3.88-2.23l5.93-2.44.17.64-5.23,2.22c-.92.4-1.59.85-2.01,1.36-.39.48-.57,1.05-.55,1.72.03.8.3,1.47.81,2.03.55.52,1.24.76,2.07.73.67-.02,1.46-.31,2.37-.88l3.09-2,.12.65-3.62,2.52c-.81.56-1.54.97-2.16,1.22-.63.25-1.29.39-1.99.41Z"/>
      <g class="cls-4">
        <path class="cls-3" d="M159.88,22.67c-.81-.52-1.49-1.17-2.02-1.98-.27-.41-.5-.85-.69-1.3-.08-.18-.14-.37-.21-.56-.11-.33-.36-1.7-.16-.31.2,1.39.06.17.05-.16,0-.24,0-.48.02-.72.03-.52.1-1.03.2-1.53.2-.97.55-1.91,1.04-2.77,2.19-3.84,7.21-6.05,11.22-3.68,1.83,1.08,3.17,2.86,4.07,4.77.55,1.16.87,2.37,1.18,3.61.03.13.09.62,0-.03-.09-.68-.01-.05,0,.11.03.4.06.8.07,1.2.02.69.02,1.39-.01,2.08-.27,5.56-2.3,10.8-4.67,15.75-1.36,2.85-2.84,5.64-4.18,8.49-1.24,2.62-2.34,5.38-2.18,8.34.02.39.1.78.16,1.16.05.32.25.83.19,1.16.61-3.11,2.48-5.8,5.01-7.64,2.85-2.08,6.39-2.91,9.87-2.75,3.72.16,7.04,1.57,10.44,2.98,3.04,1.26,6.29,2.33,9.59,1.51,5.54-1.37,9.81-7.07,9.14-12.88-.16-1.43-.26-3.18-1-4.46-.87-1.51-2.68-2.31-4.33-2.56-3.27-.49-6.6,1.22-7.62,4.49-.52,1.66-.18,3.38.12,5.04.14.76.38,1.57,1.07,1.99.78.48,1.83.29,2.67.16,1.46-.24,3.14-.89,2.98-2.66-.07-.82-.18-1.72-.39-2.51-.16-.61-.55-1.07-1.2-1.11.14.01.17,2.31.35,2.32.3.02.54.1.76.31.54.51.56,1.82.18-.88l-.05-.34c.09,1.4-1.07,2.12-2.28,2.43s-2.94.65-3.82-.41c-.17-.2-.34-.88-.49-.99.07.05.18,2.24.14.96,0-.15,0-.3,0-.45.04-.68.19-1.34.43-1.97.5-1.27,1.39-2.37,2.52-3.1,2.39-1.52,5.84-1.41,8.12.3.57.43,1.02.97,1.33,1.61.29.61.24,1.63.17-.18.02.41.05.82.04,1.24-.03,1.2-.27,2.38-.69,3.5-1.72,4.68-6.4,8.32-11.43,8.1-3.03-.13-5.84-1.46-8.6-2.61-2.95-1.23-5.98-2.15-9.2-2.18-6.36-.06-12.9,3.73-14.2,10.41l.35,2.32c-.16-2.96.94-5.72,2.18-8.34,1.35-2.85,2.83-5.64,4.18-8.49,2.63-5.52,4.88-11.46,4.69-17.69-.08-2.61-.46-5.41-1.26-7.9-.73-2.27-2.01-4.46-3.89-5.94-4.2-3.3-10.08-1.02-12.33,3.51-1.19,2.41-1.09,4.87-.69,7.46.37,2.44,1.23,4.67,3.38,6.05-.11-.07-.14-1.01-.16-1.16-.03-.18-.03-1.06-.19-1.16h0Z"/>
      </g>
    </g>
  </g>
</svg>