<?xml version="1.0" encoding="UTF-8"?>
<svg id="Layer_2" data-name="Layer 2" xmlns="http://www.w3.org/2000/svg" viewBox="0 0 302.79 77.21">
  <defs>
    <style>
      .cls-1 {
        fill: #010101;
      }

      .cls-2 {
        fill: #231f20;
      }
    </style>
  </defs>
  <g id="Layer_1-2" data-name="Layer 1">
    <g>
      <path class="cls-2" d="M28.14,34.61l3.38.27,1.56.12c.55.04,1.61-.07,2.08.16.42.21.05.12.33.35.1.08.02.97.06-.1.04-.98-.07.13-.13.37-.17.74-.45,1.46-.82,2.12-1.44,2.58-4.18,4.48-7.1,4.92-2.92.44-5.81-.81-7.73-3.05-.96-1.11-1.67-2.42-2.14-3.81-.21-.62-.37-1.27-.48-1.92-.06-.34-.14-2.1-.14-.72,0,1.27.08-.36.14-.72,1.11-6.46,7.83-10.32,14.01-10.24,6.49.09,12.1,4.48,14.93,10.13.73,1.45,1.28,2.99,1.63,4.58.16.7.28,1.41.35,2.13.03.28.04.57.07.85.1,1.03-.02-.51.01-.61-.15.44-.08,1.1-.15,1.58-.45,3.26-1.78,6.36-3.69,9.03-3.84,5.35-10.03,9.05-16.6,9.69C15.1,60.96,2.22,51.29.33,38.68c-.06-.41-.11-.82-.15-1.23-.04-.41-.04-.8-.09-1.19,0,.08-.03.67,0,.15.06-1.08.16-2.16.33-3.23.29-1.77.76-3.51,1.37-5.2,1.26-3.47,3.13-6.71,5.46-9.57,4.78-5.85,11.44-9.91,18.48-12.46,7.46-2.7,16.19-4.54,24.07-2.87,7.15,1.51,13.08,6.16,17.84,11.52,10.02,11.3,15.44,26.56,28.67,34.86,6.8,4.27,14.62,6.59,22.37,8.45,8.51,2.04,17.16,3.44,25.87,4.29,17.48,1.7,35.1,1.18,52.56-.51,17.67-1.71,35.19-4.62,52.65-7.78,4.27-.77,8.53-1.56,12.79-2.35.17-.03-.13-2.48,0-2.5-18.5,3.44-37.03,6.83-55.72,9.08-18.6,2.24-37.4,3.35-56.12,2.08-9.21-.63-18.38-1.84-27.42-3.75-8.44-1.79-17.06-3.96-24.67-8.14s-12.73-10.12-17.41-16.94c-4.68-6.82-8.4-13.49-13.7-19.43C62.21,6.02,55.75,1.32,47.87.26c-4.49-.6-9.05-.1-13.46.79-3.93.79-7.8,1.94-11.49,3.51-7.34,3.14-13.99,8.08-18.23,14.93C.93,25.56-.45,32.49.13,39.55c1.12,13.65,14.92,24.47,28.46,22.6,6.97-.96,13.43-5.35,16.93-11.46,3.01-5.26,3.58-12.26,1.66-18.01-2.11-6.35-7.57-11.85-14.4-12.69-6.83-.84-14.18,2.93-15.58,9.8-1.08,5.3.2,12.12,5.44,14.76,5.77,2.91,12.89-1.98,12.97-8.21,0-.64.33-3.16-.19-3.66-.21-.2-1.56-.12-1.82-.14l-1.82-.14-3.64-.29s-.08,2.49,0,2.5Z"/>
      <path class="cls-2" d="M260.76,28.64c.55,14.32,2.58,28.52,3.98,42.77.16,1.63.31,3.25.45,4.88l.04.46c-.04.58.04.61.23.1.25-.26.42-.76.6-1.07.41-.71.83-1.41,1.26-2.1,1.66-2.65,3.5-5.17,5.48-7.58,3.95-4.8,8.44-9.14,13.16-13.18,5.39-4.62,11.08-8.88,16.77-13.11.12-.09.03-2.49,0-2.5-13.98-4.29-27.96-8.58-41.94-12.87.22.07-.25,2.42,0,2.5,13.98,4.29,27.96,8.58,41.94,12.87v-2.5c-10,7.44-20.11,14.99-28.35,24.43-1.96,2.25-3.81,4.6-5.5,7.06-.85,1.23-1.65,2.49-2.41,3.78-.29.49-.66,1.63-1.11,1.96l-.1.18c-.03-.31-.05-.62-.08-.92-.05-.62-.11-1.24-.16-1.85-.65-7.09-1.49-14.16-2.26-21.23-.89-8.14-1.69-16.29-2-24.47.02.6-.04,1.65,0,2.41v-.02Z"/>
      <path class="cls-1" d="M100.15,46.41c-1.23-.67-2.09-1.5-2.57-2.49-.49-.99-.38-2.12.32-3.41l5.63-10.31c.42-.76.65-1.33.71-1.72.09-.37,0-.68-.24-.93-.23-.28-.69-.61-1.4-.99-.12-.06-.13-.18-.03-.36.11-.2.23-.28.34-.21,1.19.61,2.3.82,3.36.64,1.07-.22,1.93-.79,2.59-1.72.05-.09.19-.07.42.06.2.11.28.21.24.3l-8.27,15.14c-1.29,2.37-.79,4.19,1.53,5.45,1.35.73,2.74.96,4.18.69h.11c.12.07.16.19.14.37,0,.15-.07.23-.19.24-1.54.26-2.85.32-3.92.19-1.04-.11-2.03-.42-2.96-.94ZM112.77,33.41c-1.62-1.49-3.71-2.94-6.29-4.34l.53-.97c1.84,1.01,4.21,2.11,7.09,3.3.06.03.05.18-.02.45-.02.25-.11.51-.25.77-.13.23-.32.45-.58.65-.21.19-.37.23-.47.14Z"/>
      <path class="cls-1" d="M121.29,53.85c-1.87-.5-3.35-1.36-4.43-2.58-1.09-1.22-1.8-2.64-2.13-4.24-.3-1.6-.23-3.2.2-4.81.51-1.9,1.42-3.52,2.74-4.86,1.33-1.37,2.89-2.3,4.68-2.79,1.83-.51,3.68-.52,5.54-.02,1.8.48,3.06,1.33,3.77,2.56s.83,2.71.37,4.44c-.12.45-.26.76-.4.93-.12.18-.29.23-.51.17l-2.71-.72.28-.86c.43-1.61.4-2.93-.08-3.96-.49-1.03-1.34-1.7-2.56-2.03-1.71-.45-3.22-.13-4.55.96-1.29,1.1-2.25,2.83-2.88,5.18-.75,2.8-.69,5.25.16,7.34.86,2.09,2.48,3.45,4.86,4.09.97.26,1.82.35,2.57.27.78-.07,1.67-.26,2.69-.58h.05c.1.04.16.12.19.27.07.12.06.22-.03.3-2.69,1.28-5.29,1.59-7.8.92ZM118.31,38.62l11.02,2.73-.21.77-10.93-2.86.12-.64Z"/>
      <path class="cls-1" d="M161.78,58.22c-.1,0-.15-.11-.14-.31s.06-.3.16-.29c.9.04,1.57-.01,2.01-.16.44-.18.76-.5.94-.96.19-.49.31-1.22.35-2.19l.36-7.94c.09-1.96-.19-3.45-.85-4.44-.65-1-1.72-1.53-3.18-1.6-1.16-.05-2.38.29-3.65,1.04-1.23.71-2.31,1.71-3.24,3.01l-.17-.61c1.49-1.9,2.93-3.27,4.34-4.11,1.44-.87,2.93-1.27,4.46-1.2,1.76.08,3.09.64,3.98,1.68.89,1.04,1.28,2.58,1.19,4.61l-.44,9.69c-.05,1,0,1.74.15,2.21.15.47.43.82.85,1.04.42.19,1.09.3,1.99.34.1,0,.15.11.14.31s-.06.3-.16.29c-.77-.03-1.38-.08-1.85-.13l-2.69-.17-2.7-.07c-.47.01-1.08,0-1.85-.03ZM148.89,57.64c-.1,0-.15-.11-.14-.31,0-.2.06-.3.16-.29.9.04,1.57-.01,2.01-.16.44-.18.74-.5.89-.96.19-.46.3-1.19.35-2.19l.36-7.94c.09-1.96-.19-3.45-.85-4.44-.66-1-1.7-1.53-3.13-1.59-1.2-.05-2.42.29-3.65,1.04-1.23.71-2.31,1.71-3.24,3.01l-.17-.61c1.49-1.9,2.93-3.27,4.34-4.11,1.44-.87,2.91-1.27,4.41-1.2,1.76.08,3.09.64,3.98,1.68.92,1.04,1.34,2.55,1.25,4.51l-.44,9.79c-.05,1,0,1.74.15,2.21.14.47.43.82.85,1.04.43.19,1.09.3,1.99.34.1,0,.15.11.14.31,0,.2-.06.3-.16.29-.77-.03-1.38-.08-1.85-.13l-2.7-.17-2.75-.07c-.43.01-1.04,0-1.8-.03ZM136.05,57.05c-.1,0-.15-.11-.14-.31s.06-.3.16-.29c.9.04,1.57-.01,2.01-.16.44-.18.74-.5.89-.96.19-.46.3-1.19.35-2.19l.45-9.89c.05-1.13-.05-1.95-.29-2.47-.24-.51-.68-.78-1.32-.81-.53-.02-1.44.18-2.73.63h-.1c-.13-.01-.23-.08-.29-.22-.03-.17.03-.28.16-.34l5.92-2.48c.07-.03.17-.04.3-.04.3.01.6.41.9,1.19.3.78.42,1.77.37,2.97l-.53,11.59c-.04,1-.01,1.73.1,2.21.15.47.43.82.85,1.04.43.19,1.09.3,1.99.34.1,0,.15.11.14.31,0,.2-.06.3-.16.29-.76-.03-1.36-.08-1.79-.13l-2.7-.17-2.75-.07c-.43.01-1.03,0-1.8-.03Z"/>
      <path class="cls-1" d="M188.8,59.4c-.13.07-.27.1-.4.1-.5,0-.93-.39-1.29-1.16-.36-.77-.54-1.79-.53-3.05l.06-9.45c.02-3.73-1.01-5.61-3.11-5.62-1.13,0-2,.37-2.61,1.13-.57.73-.96,1.58-1.17,2.54-.14.63-.34,1.13-.61,1.5-.24.37-.67.55-1.3.54-.53,0-.95-.16-1.25-.46-.26-.3-.4-.65-.39-1.05,0-.8.53-1.6,1.57-2.39,1.04-.79,2.28-1.45,3.71-1.97,1.44-.52,2.72-.78,3.85-.77,1.37,0,2.4.45,3.09,1.32s1.04,2.12,1.03,3.76l-.06,9.35c0,1.17.14,2.02.43,2.55.3.54.78.81,1.44.81.67,0,1.5-.21,2.51-.63h.1c.13,0,.22.09.25.25.03.13-.02.23-.15.3l-5.17,2.42ZM179.8,59.39c-1.23,0-2.2-.33-2.89-.97-.66-.67-.99-1.51-.98-2.51,0-1,.41-1.86,1.22-2.59.8-.73,2.13-1.42,3.96-2.07l6.01-2.21.15.65-5.31,2.01c-.93.36-1.62.79-2.06,1.29-.4.46-.61,1.03-.61,1.7,0,.8.24,1.49.74,2.06.53.54,1.21.81,2.04.81.67,0,1.47-.26,2.4-.78l3.16-1.88.1.65-3.72,2.38c-.84.53-1.57.91-2.21,1.14-.64.23-1.3.34-2,.34Z"/>
      <g>
        <path class="cls-2" d="M216.52,7.96c-8.01,2.03-16.44,3.99-23.96-.66.32.2-.22,2.11,0,2.5,3.59,6.47,6.13,14.26,6.05,21.73,0,.28.19,2.01,0,2.13,3.91-2.57,8.7-4.05,13.39-3.35,4.26.63,7.97,3.19,9.94,7.04.44.87.79,1.79,1.01,2.73.12.5.18,1,.25,1.51-.03-.22.11-.85-.05-.13-.08.33-.11.67-.2,1.01-.56,2.2-1.91,4.11-3.46,5.73-3.26,3.4-7.58,6.66-12.28,7.61-4.47.9-9.78-.84-11.56-5.35.28.71-.29,1.77,0,2.5,1.68,4.27,6.63,6.13,10.94,5.46,5.15-.8,10.07-4.49,13.45-8.32,1.62-1.83,2.88-4.01,3.15-6.48.17-1.57.17-3.3-.03-4.87-.56-4.43-3.78-8.41-7.9-10.07-5.53-2.22-11.84-.7-16.66,2.48v2.13c.05-4.21-.14-8.38-1.01-12.52-.99-4.73-2.71-9.27-5.05-13.48v2.5c7.52,4.65,15.95,2.69,23.96.66.22-.05-.18-2.45,0-2.5h0Z"/>
        <path class="cls-2" d="M196,50.95c-.24-.3-.43-.63-.57-1-.07-.18-.12-.37-.15-.56-.02-.11-.04-.21-.05-.32-.12-1.13-.16,2.59,0,1.6.13-.76.41-1.44.89-2.04.99-1.24,2.67-2.01,4.26-1.73,1.71.3,2.73,1.84,3.06,3.44.1.49.14.98.18,1.48.06.86.04-1.82.01-1.53-.01.15-.02.29-.04.44-.04.23-.1.45-.2.66-.31.63-.98.99-1.67,1.06-.87.09-1.69-.31-2.31-.88-.66-.6-1.27-1.43-1.34-2.34v.92c.02.41.02.82.02,1.23l.02-.11c.03-.07.04-.14.07-.21.06-.14.14-.26.23-.38.2-.24.48-.4.8-.41.58-.02,1.51.52,1.57,1.14v-2.5c-.05.23-.3.43-.51.23.01.01,0,.4,0,.37,0,.29,0,.59,0,.88s0,.59,0,.88c0,.06-.03.33,0,.37.16.15.41.06.49-.14.03-.08.02-.18.03-.26,0-.36,0-.72,0-1.08,0-.41.08-.96-.02-1.37-.08-.3-.37-.52-.61-.69-.47-.33-1.06-.48-1.54-.11s-.55.92-.56,1.47c0,.59,0,1.18,0,1.77,0,.34,0,.68.1,1.01.18.58.56,1.11.97,1.55.78.84,1.93,1.42,3.08,1.05.5-.16.94-.48,1.17-.96.31-.62.26-1.37.26-2.04,0-1.61.12-3.35-.46-4.89-.43-1.14-1.28-2.15-2.49-2.49s-2.57,0-3.59.72c-1.08.76-1.84,1.94-1.91,3.28-.06,1-.08,2.04.01,3.04.07.71.33,1.38.77,1.94-.02-.02,0-.39,0-.37,0-.29,0-.59,0-.88s0-.59,0-.88c0-.07.03-.31,0-.37h0Z"/>
      </g>
      <path class="cls-2" d="M229.66,47.63c-1.17-.24-2.41.07-3.34.82-.47.38-.96.9-.98,1.54-.02.73-.02,1.46,0,2.19,0,.28.02.54.2.77.35.43.97.58,1.48.69.66.14,1.34.25,2.02.25,1.14,0,2.95-.35,2.98-1.77.02-.79.07-1.61,0-2.4-.03-.32-.18-.61-.4-.84-.54-.55-1.37-.6-2.09-.65.03,0-.07,2.5,0,2.5.95.05,2.44.26,2.49,1.51v-2.41c-.04.71-.8,1.11-1.39,1.32-.68.24-1.42.27-2.14.21-.67-.05-1.37-.16-2.01-.37-.51-.16-1.07-.46-1.12-1.05v2.46c.02-.5.42-.94.76-1.26.3-.28.65-.52,1.03-.7.79-.37,1.68-.48,2.53-.31-.02,0,.01-1.15.01-1.25s.05-1.24-.01-1.25h0Z"/>
      <path class="cls-2" d="M231.49,17.56c-.48-1.47-.92-2.96-1.28-4.47s-.52-3.07-.91-4.56c-.24-.91.46.39-.05.66.07-.04.27-.7.36-.83.33-.48.83-.78,1.32-1.07,1.19-.7,2.48-1.27,3.79-1.71,4.9-1.67,10.56-1.5,14.86,1.59,1.88,1.36,3.45,3.19,4.4,5.31.48,1.06.66,2.1.92,3.21.23.95-.06-.43.06-.6-.11.15-.12,1.17-.18,1.48-.14.79-.35,1.57-.61,2.33-.92,2.73-2.35,5.32-3.74,7.83s-2.94,5.04-4.57,7.46c-1.84,2.73-3.82,5.36-5.92,7.89-1.81,2.18-4.37,4.33-4.8,7.29-.04.28.12,2.46,0,2.5,9.72-3.26,19.93-4.84,30.19-4.66,0,0,.03-2.5,0-2.5-10.25-.17-20.46,1.41-30.19,4.66v2.5c.44-3.08,3.2-5.35,5.08-7.63,2.09-2.54,4.06-5.18,5.88-7.92,1.91-2.86,3.67-5.82,5.28-8.86,1.5-2.84,3.08-5.81,3.49-9.04.63-4.95-.53-9.77-4.46-13.09-4.71-3.98-11.37-4.06-16.89-1.82-1.33.54-3.65,1.35-4.2,2.83-.35.96-.18,2.21-.17,3.21.07,3.51,1.23,7.2,2.31,10.51-.24-.75.25-1.74,0-2.5h0Z"/>
    </g>
  </g>
</svg>